<svg width="677" height="306" viewBox="0 0 677 306" fill="none" xmlns="http://www.w3.org/2000/svg">
<path fill-rule="evenodd" clip-rule="evenodd" d="M110.136 189.667C109.932 190.966 109.434 192.203 108.679 193.284C107.925 194.365 106.933 195.263 105.779 195.91C103.456 197.399 101.422 198.144 99.3648 198.888C94.9836 200.389 90.3724 201.89 85.4949 203.631C80.3512 205.372 75.74 207.113 71.625 208.374C66.4933 210.115 61.6159 211.616 56.9805 213.357C53.493 214.837 50.2172 216.767 47.2376 219.096C44.4665 221.587 42.0482 224.439 40.0485 227.573C37.991 231.055 36.696 235.546 36.696 240.781C36.696 251.263 39.2618 259.236 44.4055 264.219C49.5372 269.466 59.0501 271.952 73.1499 271.952C87.5282 271.952 97.2831 269.214 102.439 263.727C107.558 258.239 110.124 250.519 110.124 240.553V189.667H110.136ZM73.162 79.2011C98.3361 79.2011 116.817 83.944 128.618 93.6697C140.43 103.155 146.336 115.355 146.336 129.811V253.004C146.336 257.987 145.32 263.475 143.528 269.454C141.713 275.458 138.13 280.933 132.478 285.904C127.093 290.911 119.649 295.149 110.149 298.391C100.648 301.633 88.327 303.374 73.1741 303.374C58.0455 303.374 45.7006 301.633 36.2119 298.391C26.7232 295.149 19.2678 290.911 13.882 285.904C8.8718 281.425 5.07632 275.768 2.84418 269.454C1.02875 263.487 0 257.999 0 253.016V233.325C0 222.842 2.81998 213.117 8.47203 204.628C14.1241 195.91 22.0757 189.931 32.3511 186.185C37.4827 184.444 43.3889 182.703 50.0576 180.457C56.7384 178.2 62.8867 175.955 69.0592 173.973C75.2316 171.968 80.6174 169.963 85.2286 168.21C88.0114 167.105 90.8377 166.112 93.7007 165.232L98.324 162.987C100.139 161.99 101.919 160.489 103.722 158.496C105.513 156.515 107.05 154.27 108.345 151.772C109.713 149.068 110.418 146.081 110.403 143.055V135.07C110.422 132.144 109.802 129.248 108.587 126.581C107.571 123.58 105.513 120.842 102.693 118.356C99.8731 115.859 96.0123 113.866 91.4011 112.353C86.7778 110.876 80.6295 110.12 73.6825 110.12C59.3042 110.12 49.8034 112.881 44.6718 118.597C40.3148 123.592 37.7489 129.823 37.2406 136.799C37.2406 138.3 35.9577 139.297 34.4085 139.297L3.09834 139.801C2.35459 139.804 1.63967 139.516 1.10925 138.999C0.578817 138.481 0.275833 137.777 0.266264 137.039V129.835C0.266264 122.835 1.56127 116.351 4.38125 110.12C7.21333 103.876 11.5825 98.6527 17.4766 94.15C23.3828 89.6714 31.0924 85.9371 40.3269 83.4397C49.3193 80.4379 60.3572 79.2011 73.1862 79.2011H73.162ZM640.788 189.667C640.584 190.966 640.085 192.203 639.331 193.284C638.576 194.365 637.585 195.263 636.431 195.91C634.132 197.399 632.074 198.144 630.017 198.888C625.659 200.389 621.024 201.89 616.147 203.631C611.003 205.372 606.38 207.113 602.277 208.374C597.133 210.115 592.255 211.616 587.632 213.357C584.14 214.836 580.861 216.766 577.877 219.096C575.11 221.588 572.696 224.439 570.7 227.573C568.643 231.055 567.36 235.546 567.36 240.781C567.36 251.263 569.901 259.236 575.045 264.219C580.177 269.466 589.69 271.952 603.802 271.952C618.204 271.952 627.947 269.214 633.091 263.727C638.21 258.239 640.776 250.519 640.776 240.553V189.667H640.788ZM603.826 79.2011C629 79.2011 647.481 83.944 659.293 93.6697C671.094 103.155 677 115.355 677 129.811V253.004C677 257.987 675.983 263.475 674.18 269.454C672.389 275.458 668.794 280.933 663.142 285.904C657.756 290.911 650.313 295.149 640.812 298.391C631.324 301.633 618.991 303.374 603.85 303.374C588.721 303.374 576.376 301.633 566.888 298.391C557.399 295.149 549.944 290.911 544.558 285.904C539.556 281.422 535.769 275.766 533.544 269.454C531.729 263.475 530.7 257.987 530.7 253.004V233.313C530.7 222.83 533.532 213.105 539.172 204.616C544.824 195.898 552.788 189.919 563.051 186.173C568.183 184.432 574.089 182.691 580.77 180.445C587.426 178.188 593.599 175.943 599.771 173.961C605.944 171.956 611.318 169.951 615.941 168.198C618.724 167.093 621.55 166.1 624.413 165.22L629.036 162.975C630.827 161.978 632.631 160.477 634.422 158.484C636.259 156.458 637.814 154.196 639.045 151.76C640.414 149.056 641.119 146.069 641.103 143.043V135.058C641.122 132.132 640.502 129.236 639.287 126.569C638.271 123.567 636.225 120.83 633.393 118.344C630.573 115.847 626.737 113.854 622.101 112.341C617.478 110.864 611.33 110.107 604.383 110.107C590.004 110.107 580.516 112.869 575.372 118.585C571.015 123.579 568.449 129.811 567.929 136.787C567.929 138.288 566.658 139.285 565.121 139.285H533.98C533.245 139.282 532.539 138.994 532.015 138.483C531.49 137.971 531.188 137.277 531.172 136.547V129.307C531.172 122.343 532.455 115.859 535.287 109.615C538.107 103.396 542.464 98.1484 548.358 93.6697C554.289 89.1791 561.974 85.4328 571.233 82.9474C579.947 80.4259 590.985 79.1891 603.826 79.1891V79.2011ZM493.689 80.1977H514.24C516.031 80.1977 517.314 81.9508 516.806 83.6798L509.871 109.615C509.629 110.876 508.334 111.62 507.305 111.62H492.927C485.23 111.62 479.069 112.617 474.192 114.622C469.556 116.603 465.72 118.849 463.142 121.586C460.576 124.348 459.027 127.074 458.264 129.823C457.573 132.511 457.228 135.274 457.236 138.048V298.391C457.22 299.127 456.912 299.827 456.38 300.339C455.847 300.852 455.133 301.135 454.391 301.129H423.602C422.864 301.129 422.156 300.843 421.629 300.331C421.101 299.819 420.797 299.123 420.782 298.391V130.808C420.782 127.83 421.29 123.339 422.573 117.6C423.602 111.873 426.688 106.385 431.565 100.646C436.443 95.1586 443.632 90.1757 453.387 86.1893C463.154 82.1789 476.503 80.1857 493.689 80.1857V80.1977ZM389.968 247.517V254.998C389.968 258.239 389.483 262.73 388.188 268.47C387.16 273.945 384.073 279.684 379.196 285.159C374.319 290.659 367.129 295.642 357.374 299.628C347.62 303.626 334.258 305.632 317.072 305.632C299.886 305.632 286.524 303.626 276.769 299.628C267.014 295.642 259.825 290.911 254.948 285.171C250.07 279.696 246.984 273.957 245.955 268.241C244.939 262.478 244.176 258.251 244.176 255.01V87.1859C244.176 85.685 245.459 84.4242 246.996 84.4242H277.544C279.093 84.4242 280.376 85.685 280.376 87.1859V244.275C280.376 249.51 281.138 253.256 281.913 256.246C282.7 259.248 284.237 262.226 286.548 264.723C288.848 267.461 292.455 269.706 297.32 271.447C301.943 273.2 308.37 274.209 316.321 274.209C324.551 274.209 331.208 273.2 336.098 271.447C340.975 269.706 344.57 267.461 347.135 264.963C349.677 262.478 351.492 259.74 352.255 256.739C353.03 253.737 354.07 251.263 354.07 244.011V86.9457C354.07 85.4569 355.341 84.2081 356.878 84.2081H387.426C388.951 84.2081 390.234 85.4569 390.234 86.9698V247.541H389.992L389.968 247.517ZM179.728 0.17021H210.288C211.825 0.17021 213.108 1.40694 213.108 2.89583V299.88C213.098 300.616 212.797 301.318 212.269 301.835C211.741 302.352 211.03 302.642 210.288 302.642H179.728C178.986 302.642 178.275 302.352 177.747 301.835C177.219 301.318 176.918 300.616 176.908 299.88V2.89583C177.15 1.40694 178.191 0.158203 179.728 0.158203V0.17021Z" fill="white"/>
</svg>
