<svg width="4131" height="3173" viewBox="0 0 4131 3173" fill="none" xmlns="http://www.w3.org/2000/svg">
<path d="M27 2837.3V2998.21M27 3145.5V2998.21M27 2998.21H322.006V2837.3V3145.5M469.509 3145.72L643.831 2837.3L818.153 3145.72M1233.84 3145.72H952.247V2837.3H1233.84M1367.94 3146V2998.21M1367.94 2837.3V2998.21M1367.94 2998.21H1515.44M1515.44 2998.21L1622.72 2837.3M1515.44 2998.21L1625.22 3146M1837.27 3145.72V2837.5L2172.5 3145.72V2837.5M2320 2836.95V2904M2561.37 3145.72C2561.37 3106.35 2561.37 3051.5 2561.37 2998.21M2762.51 2998.21C2869.79 2933.85 2834.03 2869.29 2789.33 2838H2561.37C2561.37 2844.62 2561.37 2912.35 2561.37 2998.21M2762.51 2998.21H2561.37M2762.51 2998.21L2856.38 3145.72M3459.8 2837.3V3145.72H3714.58M3848.67 2837.3V3145.72H4103.45" stroke="white" stroke-width="53.6375" stroke-linecap="round" stroke-linejoin="round"/>
<rect x="2970.54" y="2837.81" width="361.38" height="307.38" rx="83.4294" stroke="white" stroke-width="55.6196" stroke-linejoin="round"/>
<path d="M3313.5 1248.74C3313.5 1938.33 2754.42 2497.5 2064.76 2497.5C1375.08 2497.5 816 1938.33 816 1248.74C816 559.081 1375.08 0 2064.76 0C2754.42 0 3313.5 559.081 3313.5 1248.74Z" fill="url(#paint0_linear_843_117)"/>
<path d="M3222.38 1248.75C3222.38 1888.13 2704.08 2406.44 2064.72 2406.44C1425.33 2406.44 906.93 1888.13 906.93 1248.75C906.93 609.288 1425.33 90.9827 2064.72 90.9827C2704.08 90.9827 3222.38 609.288 3222.38 1248.75Z" fill="url(#paint1_radial_843_117)"/>
<path d="M2058.26 261.388V338.502H2117.68V261.388H2058.26ZM2203.86 415.52V492.73H2263.92V415.52H2203.86ZM1951.65 417.583V489.636H2017.7V417.583H1951.65ZM1795.55 513.717V612.754H1891.59V513.717H1795.55ZM2071.74 567.781V711.887H2206.85V567.781H2071.74ZM2311.98 594.765V723.879H2435.1V594.765H2311.98ZM1564.4 687.805V840.977H1714.5V687.805H1564.4ZM2068.19 809.22V949.584L1924.66 950.232V811.955H1780.56V950.903L1459.65 952.391C1455.62 1517.64 1457.78 1552.41 1679.27 1849.24L1689.87 1860.29L1689.96 1850.82V1299.05L1537.61 1065.67L1848.1 1215.94V1534.43L2057.78 1575.92L2259.53 1540.33L2257.56 1213.98L2591.75 1097.34L2415.7 1342.54L2414.57 1852.98L2415.05 1852.4C2661.29 1542.84 2660.25 1486.91 2670.64 946.778H2670.45V809.22H2512.22C2515.41 878.275 2510.51 947.138 2511.09 1015.16H2424.88C2425.36 974.601 2423.95 930.851 2424.04 892.618H2301.96C2301.21 962.417 2302.15 1036.72 2302.15 1099.69H2158.62V940.398H2238.35V809.22H2068.19ZM1848.1 1690.6V2024.81L1847.84 2025.29L2049.75 2236.1L2259.24 2016.11L2257.56 1690.6H1848.1Z" fill="url(#paint2_linear_843_117)"/>
<defs>
<linearGradient id="paint0_linear_843_117" x1="966.465" y1="366.091" x2="3263.33" y2="2341.99" gradientUnits="userSpaceOnUse">
<stop stop-color="#D0A627"/>
<stop offset="0.501355" stop-color="#FAE154"/>
<stop offset="1" stop-color="#AF9325"/>
</linearGradient>
<radialGradient id="paint1_radial_843_117" cx="0" cy="0" r="1" gradientUnits="userSpaceOnUse" gradientTransform="translate(2064.7 1248.74) scale(1157.73)">
<stop stop-color="#2C1712"/>
<stop offset="1" stop-color="#4C341B"/>
</radialGradient>
<linearGradient id="paint2_linear_843_117" x1="1448.69" y1="965.618" x2="2427.94" y2="1825.07" gradientUnits="userSpaceOnUse">
<stop stop-color="#E2B42C"/>
<stop offset="0.501355" stop-color="#FAE154"/>
<stop offset="1" stop-color="#D6B32B"/>
</linearGradient>
</defs>
</svg>
