<svg width="1274" height="227" viewBox="0 0 1274 227" fill="none" xmlns="http://www.w3.org/2000/svg">
<g clip-path="url(#clip0_839_28)">
<mask id="mask0_839_28" style="mask-type:luminance" maskUnits="userSpaceOnUse" x="-109" y="-127" width="1492" height="482">
<path d="M-109 -127H1383V354.333H-109V-127Z" fill="white"/>
</mask>
<g mask="url(#mask0_839_28)">
<path d="M1215.09 65.2301C1215.09 64.2768 1214.77 63.4021 1214.29 62.6074C1213.74 61.8914 1213.02 61.3354 1212.23 61.0968C1211.83 60.9381 1211.27 60.9381 1210.56 60.9381H1203.8V75.8008H1206.27V69.6808H1209.29C1210.24 69.6808 1210.96 70.0781 1211.59 70.7941C1212.23 71.4301 1212.55 72.3048 1212.55 73.2581V75.8008H1215.09V73.2581C1215.09 71.5088 1214.45 69.9994 1213.26 68.8074C1214.45 67.9328 1215.09 66.7408 1215.09 65.2301ZM1212.55 65.2301C1212.55 65.7074 1212.39 66.1048 1212.07 66.4221C1211.67 66.8194 1211.19 66.9781 1210.56 66.9781L1206.27 67.0581V63.5608L1210.56 63.4821C1211.19 63.4821 1211.51 63.5608 1211.67 63.6408C1212.23 63.9581 1212.55 64.5141 1212.55 65.2301Z" fill="#0D4485"/>
<path d="M1209.05 82.9551C1201.02 82.9551 1194.5 76.4377 1194.5 68.4897C1194.5 60.4617 1201.02 53.9431 1209.05 53.9431C1217 53.9431 1223.51 60.4617 1223.51 68.4897C1223.51 76.4377 1217 82.9551 1209.05 82.9551ZM1209.05 57.4404C1202.93 57.4404 1198 62.3684 1198 68.4897C1198 74.5297 1202.93 79.4577 1209.05 79.4577C1215.09 79.4577 1220.02 74.5297 1220.02 68.4897C1220.02 62.3684 1215.09 57.4404 1209.05 57.4404Z" fill="#0D4485"/>
<path d="M934.831 153.059C912.496 153.059 897.632 137.719 897.632 113.318C897.632 88.9165 912.496 73.8138 934.831 73.8138C957.087 73.8138 972.029 89.1551 972.029 113.556C972.029 137.958 957.087 153.059 934.831 153.059ZM306.276 172.93H276.471V53.8644H296.341C301.825 53.8644 306.276 58.3151 306.276 63.7991V172.93ZM373.281 53.9431H399.352C437.98 53.9431 452.923 125.08 477.484 141.852V53.9431H507.211V172.93H481.696C445.849 172.93 428.681 99.0898 402.769 83.9884L403.008 172.93H373.281V53.9431ZM731.592 53.8644H751.383C756.868 53.8644 761.319 58.3151 761.319 63.7991V131.996C761.319 148.29 769.267 152.9 779.759 152.979H821.964V172.93H775.864C753.052 173.01 731.592 163.868 731.592 134.699V53.8644ZM1098.25 76.0391V114.668H1137.43C1148.16 113.954 1156.59 105.528 1156.59 95.3538C1156.59 85.1805 1148.16 76.7551 1137.43 76.0391H1098.25ZM1098.25 172.93H1068.44V53.8644L1143.47 53.9431C1167.16 53.9431 1186.32 72.4631 1186.32 95.3538C1186.32 111.648 1176.54 125.796 1162.39 132.552C1173.76 145.906 1180.75 163.471 1191.24 172.93H1160.33C1148.48 158.304 1139.66 136.764 1125.51 136.764H1098.25V172.93ZM574.215 172.93H603.941V114.907H652.665V94.8778H603.941V73.8938H664.588V53.8644H584.151C578.665 53.8644 574.215 58.3151 574.215 63.7991V172.93ZM934.831 176.03C978.149 176.03 1001.83 151.47 1001.83 113.556C1001.83 73.8138 978.388 50.8431 934.831 50.8431C891.433 50.8431 867.827 75.4045 867.827 113.318C867.827 153.059 891.433 176.03 934.831 176.03Z" fill="#0D4485"/>
</g>
<path d="M76.5703 33.4361C144.05 45.6761 197.305 98.9321 209.546 166.412V49.4134C209.546 40.6708 202.313 33.4361 193.489 33.4361H76.5703Z" fill="url(#paint0_linear_839_28)"/>
<path d="M49.5469 177.46C49.5469 186.204 56.7789 193.436 65.6015 193.436H182.522C115.04 181.196 61.7869 127.943 49.5469 60.46V177.46Z" fill="url(#paint1_linear_839_28)"/>
<mask id="mask1_839_28" style="mask-type:luminance" maskUnits="userSpaceOnUse" x="-109" y="-127" width="1492" height="482">
<path d="M-109 -127H1383V354.333H-109V-127Z" fill="white"/>
</mask>
<g mask="url(#mask1_839_28)">
<path d="M1382.78 353.963H-109.223V-127.37H1382.78V353.963Z" stroke="white" stroke-width="0.666667" stroke-miterlimit="10"/>
</g>
</g>
<defs>
<linearGradient id="paint0_linear_839_28" x1="62.9065" y1="-32.8159" x2="265.989" y2="157.331" gradientUnits="userSpaceOnUse">
<stop stop-color="#0D4485"/>
<stop offset="0.26257" stop-color="#0D4485"/>
<stop offset="0.759777" stop-color="#00C0F3"/>
<stop offset="1" stop-color="#00C0F3"/>
</linearGradient>
<linearGradient id="paint1_linear_839_28" x1="196.185" y1="259.689" x2="-6.897" y2="69.542" gradientUnits="userSpaceOnUse">
<stop stop-color="#509135"/>
<stop offset="0.26257" stop-color="#509135"/>
<stop offset="0.759777" stop-color="#96C942"/>
<stop offset="1" stop-color="#96C942"/>
</linearGradient>
<clipPath id="clip0_839_28">
<rect width="1274" height="227" fill="white"/>
</clipPath>
</defs>
</svg>
