<svg width="1548" height="347" viewBox="0 0 1548 347" fill="none" xmlns="http://www.w3.org/2000/svg">
<path d="M627.483 85.2916V186.174C627.483 199.072 624.126 208.907 617.414 215.737C610.701 222.547 601.159 225.962 588.808 225.962C576.631 225.962 567.187 222.547 560.494 215.737C553.782 208.946 550.152 198.643 550.152 185.765L550.425 86.2673V85.2916H512.277V86.2673V185.921V187.15C512.277 200.048 508.921 209.883 502.208 216.712C495.496 223.542 485.954 226.937 473.602 226.937C461.426 226.937 451.982 223.522 445.269 216.712C438.557 209.902 435.201 200.048 435.201 187.15V86.2673H397.052V186.877C397.052 203.053 400.409 216.693 407.121 227.874C413.834 239.035 422.966 247.445 434.498 253.085C446.03 258.705 458.87 261.534 473.036 261.534C487.379 261.534 500.413 258.724 512.121 253.085C519.556 249.494 526.054 244.792 531.576 238.977C536.766 244.343 542.796 248.733 549.703 252.109C561.236 257.729 574.075 260.558 588.242 260.558C602.584 260.558 615.618 257.748 627.326 252.109C639.034 246.489 648.381 238.079 655.386 226.898C662.372 215.717 665.884 202.058 665.884 185.901V85.2916H627.483Z" fill="white"/>
<path d="M858.088 152.163C854.673 136.045 848.234 122.484 838.731 111.517C829.228 100.512 817.559 92.9409 803.686 88.8041C789.831 84.6673 775.021 84.238 759.293 87.5748C742.98 91.0091 729.302 97.5459 718.218 107.146C707.174 116.766 699.486 128.767 695.252 143.207C691.017 157.607 690.725 173.374 694.334 190.487C697.905 207.405 704.579 221.591 714.374 233.025C724.17 244.499 736.131 252.402 750.298 256.812C764.425 261.202 779.45 261.709 795.373 258.353C815.101 254.197 830.633 245.553 842.009 232.44C845.853 228.01 849.151 223.347 851.825 218.488L820.408 201.434C812.291 214.781 802.73 220.635 787.178 223.913C776.406 226.176 766.669 224.713 757.869 219.503C749.069 214.293 742.922 205.804 739.39 194.097L860.332 168.554C860.079 163.598 859.357 158.154 858.088 152.163ZM733.731 165.939C732.97 154.466 735.468 144.826 741.224 137.079C746.942 129.313 755 124.337 765.362 122.152C776.309 119.849 786.241 121.137 795.198 126.016C804.115 130.894 809.813 138.68 812.291 149.373L733.731 165.939Z" fill="white"/>
<path d="M957.234 93.4482C966.893 88.2578 977.938 85.6624 990.328 85.6624C1004.77 85.6624 1017.84 89.2334 1029.55 96.3361C1041.24 103.458 1050.51 113.566 1057.32 126.698C1064.13 139.831 1067.54 155.032 1067.54 172.32C1067.54 189.609 1064.13 204.926 1057.32 218.254C1050.51 231.581 1041.24 241.904 1029.55 249.221C1017.84 256.539 1004.79 260.207 990.328 260.207C977.918 260.207 966.971 257.67 957.527 252.577C948.063 247.485 940.375 241.084 934.482 233.357V338.025H891.748V88.3943H934.482V112.805C940.004 105.098 947.575 98.6387 957.234 93.4482ZM1017.65 145.938C1013.47 138.523 1007.99 132.865 1001.18 129.001C994.368 125.137 986.992 123.186 979.069 123.186C971.323 123.186 964.064 125.176 957.254 129.138C950.444 133.099 944.941 138.855 940.765 146.368C936.589 153.9 934.521 162.739 934.521 172.905C934.521 183.072 936.609 191.931 940.765 199.443C944.941 206.975 950.424 212.712 957.254 216.673C964.064 220.634 971.342 222.625 979.069 222.625C986.992 222.625 994.368 220.595 1001.18 216.517C1007.99 212.458 1013.49 206.644 1017.65 199.112C1021.82 191.599 1023.89 182.623 1023.89 172.262C1023.93 162.173 1021.82 153.373 1017.65 145.938Z" fill="white"/>
<path d="M1101.57 61.0955C1096.58 56.3148 1094.08 50.3632 1094.08 43.241C1094.08 36.1187 1096.58 30.1673 1101.57 25.3865C1106.57 20.6058 1112.81 18.2252 1120.34 18.2252C1127.88 18.2252 1134.12 20.6254 1139.1 25.3865C1144.09 30.1673 1146.59 36.1187 1146.59 43.241C1146.59 50.3632 1144.09 56.3148 1139.1 61.0955C1134.1 65.8762 1127.86 68.2567 1120.34 68.2567C1112.83 68.2763 1106.55 65.8762 1101.57 61.0955ZM1141.4 88.4138V257.475H1098.66V88.4138H1141.4Z" fill="white"/>
<path d="M1248.97 93.4482C1258.63 88.2578 1269.68 85.6624 1282.09 85.6624C1296.53 85.6624 1309.6 89.2334 1321.31 96.3361C1333 103.458 1342.27 113.566 1349.08 126.698C1355.89 139.831 1359.3 155.032 1359.3 172.32C1359.3 189.609 1355.89 204.926 1349.08 218.254C1342.27 231.581 1333 241.904 1321.31 249.221C1309.6 256.539 1296.55 260.207 1282.09 260.207C1269.68 260.207 1258.73 257.67 1249.29 252.577C1239.82 247.485 1232.13 241.084 1226.24 233.357V338.025H1183.51V88.3943H1226.24V112.805C1231.72 105.098 1239.3 98.6387 1248.97 93.4482ZM1309.41 145.938C1305.23 138.523 1299.75 132.865 1292.94 129.001C1286.13 125.137 1278.75 123.186 1270.83 123.186C1263.08 123.186 1255.82 125.176 1249.01 129.138C1242.2 133.099 1236.7 138.855 1232.52 146.368C1228.35 153.9 1226.28 162.739 1226.28 172.905C1226.28 183.072 1228.37 191.931 1232.52 199.443C1236.7 206.975 1242.18 212.712 1249.01 216.673C1255.82 220.634 1263.1 222.625 1270.83 222.625C1278.77 222.625 1286.13 220.595 1292.94 216.517C1299.75 212.458 1305.25 206.644 1309.41 199.112C1313.58 191.599 1315.65 182.623 1315.65 172.262C1315.65 162.173 1313.56 153.373 1309.41 145.938Z" fill="white"/>
<path d="M1545.51 152.124C1542.1 136.006 1535.66 122.445 1526.16 111.478C1516.65 100.473 1504.99 92.9018 1491.11 88.765C1477.26 84.6283 1462.45 84.199 1446.72 87.5357C1430.41 90.97 1416.73 97.5069 1405.64 107.107C1394.6 116.727 1386.91 128.728 1382.68 143.168C1378.44 157.568 1378.15 173.335 1381.76 190.448C1385.33 207.366 1392.01 221.552 1401.8 232.986C1411.6 244.46 1423.56 252.363 1437.72 256.773C1451.85 261.163 1466.88 261.671 1482.8 258.314C1502.53 254.158 1518.06 245.514 1529.44 232.401C1533.28 227.971 1536.58 223.308 1539.25 218.449L1507.83 201.395C1499.72 214.741 1490.16 220.595 1474.6 223.874C1463.83 226.137 1454.08 224.674 1445.3 219.464C1436.51 214.254 1430.35 205.766 1426.82 194.058L1547.76 168.515C1547.52 163.559 1546.78 158.095 1545.51 152.124ZM1421.18 165.9C1420.42 154.427 1422.91 144.787 1428.67 137.04C1434.39 129.274 1442.45 124.298 1452.81 122.113C1463.75 119.81 1473.69 121.098 1482.64 125.977C1491.56 130.855 1497.26 138.64 1499.74 149.334L1421.18 165.9Z" fill="white"/>
<path d="M311.975 190.643V155.988C311.975 0 155.988 0 155.988 0H121.313V70.3056C46.0705 78.9694 0 143.48 0 207.99C0 277.32 53.8172 346.65 138.641 346.65L138.66 346.631C139.265 346.65 139.85 346.65 140.455 346.65C181.023 346.65 215.756 321.634 230.059 286.179C234.567 275.017 237.045 262.822 237.045 250.06C237.045 238.684 235.074 227.757 231.464 217.629C228.128 208.244 223.366 199.521 217.434 191.716C217.122 191.306 216.713 190.975 216.244 190.74L216.186 190.682L216.147 190.662H311.975V190.643ZM174.857 205.336C181.14 209.922 186.506 215.698 190.623 222.332C192.536 225.415 194.194 228.674 195.541 232.089V232.108C198.351 239.113 199.873 246.723 199.873 254.704C199.873 265.983 196.809 276.559 191.482 285.652C183.521 299.214 170.506 309.439 155.012 313.692V313.712C149.802 315.156 144.319 315.936 138.66 315.936C104.844 315.936 77.428 288.52 77.428 254.704C77.428 248.753 78.2671 242.997 79.8672 237.572C87.2822 212.088 110.795 193.492 138.66 193.492C152.202 193.472 164.729 197.863 174.857 205.336ZM151.831 154.524C132.806 154.407 113.859 158.368 96.8044 166.798C72.2179 178.935 45.4461 203.814 43.5143 249.885H43.4948V250.08C43.4948 250.099 43.4948 250.099 43.4948 250.119C40.8019 244.206 38.5774 237.747 37.0749 230.625C35.5528 223.522 34.6943 215.795 34.6943 207.366C34.6943 156.046 65.1152 129.821 92.9799 116.552C111.732 107.615 132.377 103.38 153.119 103.38H155.695L156.027 35.5528C191.131 40.5481 268.09 62.1102 276.579 155.402L151.831 154.524Z" fill="url(#paint0_linear_3_71)"/>
<path d="M237.045 250.041C237.045 262.802 234.567 274.998 230.059 286.159L191.482 285.633C196.809 276.559 199.873 265.963 199.873 254.685C199.873 246.704 198.351 239.094 195.541 232.089V232.069C194.194 228.654 192.536 225.396 190.623 222.313C186.487 215.698 181.12 209.922 174.857 205.317C164.729 197.843 152.202 193.453 138.66 193.453C152.71 191.267 189.94 190.741 216.186 190.643L216.244 190.701C216.713 190.936 217.122 191.267 217.434 191.677C223.347 199.482 228.108 208.185 231.464 217.591C235.074 227.737 237.045 238.665 237.045 250.041Z" fill="url(#paint1_linear_3_71)"/>
<defs>
<linearGradient id="paint0_linear_3_71" x1="50.5108" y1="70.7987" x2="253.402" y2="273.69" gradientUnits="userSpaceOnUse">
<stop stop-color="#1E7CD8"/>
<stop offset="0.1556" stop-color="#1E81D7"/>
<stop offset="0.3387" stop-color="#1C8FD6"/>
<stop offset="0.5357" stop-color="#1AA7D3"/>
<stop offset="0.7425" stop-color="#17C8CE"/>
<stop offset="0.9549" stop-color="#13F2C9"/>
<stop offset="1" stop-color="#12FCC8"/>
</linearGradient>
<linearGradient id="paint1_linear_3_71" x1="148.971" y1="183.153" x2="241.019" y2="275.2" gradientUnits="userSpaceOnUse">
<stop stop-color="#3171B2"/>
<stop offset="0.1642" stop-color="#2D81B5" stop-opacity="0.8358"/>
<stop offset="0.4872" stop-color="#24ACBB" stop-opacity="0.5128"/>
<stop offset="0.9343" stop-color="#14F1C6" stop-opacity="0.0657"/>
<stop offset="1" stop-color="#12FCC8" stop-opacity="0"/>
</linearGradient>
</defs>
</svg>
