<svg width="81" height="81" viewBox="0 0 81 81" fill="none" xmlns="http://www.w3.org/2000/svg">
<circle cx="40.8623" cy="40.61" r="37.6947" fill="#21201E" stroke="#FEF3DE" stroke-width="4.34939"/>
<mask id="mask0_250_172" style="mask-type:alpha" maskUnits="userSpaceOnUse" x="28" y="26" width="25" height="29">
<path d="M52.1913 37.0138C52.8916 44.7492 45.9993 54.497 40.3684 54.497C34.7376 54.497 27.8454 44.7492 28.5458 37.0138C29.1646 30.1787 34.0355 26.837 40.3684 26.837C46.7014 26.8369 51.5725 30.1787 52.1913 37.0138Z" fill="#B3B3B3"/>
</mask>
<g mask="url(#mask0_250_172)">
<path d="M50.232 34.0496C51.0017 42.564 43.4266 53.2936 37.2379 53.2936C31.0493 53.2936 23.4744 42.564 24.2441 34.0496C24.9243 26.5262 30.2777 22.8479 37.2379 22.8478C44.1983 22.8478 49.5518 26.5262 50.232 34.0496Z" fill="#B3B3B3"/>
<rect x="24.9148" y="24.2977" width="32.6204" height="32.6204" fill="#0087B4" style="mix-blend-mode:multiply"/>
</g>
<path d="M36.4644 29.3722C33.3373 30.9606 32.3545 32.556 31.9422 35.633M31.3667 40.7254C31.3302 40.0976 31.3388 39.5006 31.3876 38.9332" stroke="white" stroke-width="2.1747" stroke-linecap="round" stroke-linejoin="round"/>
</svg>
