<svg width="81" height="81" viewBox="0 0 81 81" fill="none" xmlns="http://www.w3.org/2000/svg">
<circle cx="40.8624" cy="40.3506" r="37.6947" fill="#21201E" stroke="#FEF3DE" stroke-width="4.34939"/>
<path d="M52.9163 36.3941C53.6166 44.1295 46.7243 53.8773 41.0934 53.8773C35.4625 53.8773 28.5704 44.1295 29.2707 36.3941C29.8896 29.559 34.7605 26.2173 41.0934 26.2173C47.4264 26.2172 52.2974 29.559 52.9163 36.3941Z" fill="#6F6F6F"/>
<mask id="mask0_250_191" style="mask-type:alpha" maskUnits="userSpaceOnUse" x="29" y="26" width="24" height="28">
<path d="M52.9162 36.394C53.6166 44.1295 46.7242 53.8773 41.0933 53.8773C35.4625 53.8773 28.5703 44.1295 29.2707 36.394C29.8895 29.559 34.7604 26.2173 41.0933 26.2172C47.4263 26.2172 52.2974 29.559 52.9162 36.394Z" fill="#B3B3B3"/>
</mask>
<g mask="url(#mask0_250_191)">
<path d="M50.9569 33.4298C51.7266 41.9443 44.1515 52.6738 37.9629 52.6738C31.7742 52.6738 24.1993 41.9443 24.9691 33.4298C25.6492 25.9064 31.0026 22.2281 37.9629 22.2281C44.9232 22.228 50.2768 25.9064 50.9569 33.4298Z" fill="#B3B3B3"/>
<rect x="25.6397" y="23.6779" width="32.6204" height="32.6204" fill="#B3B503" style="mix-blend-mode:multiply"/>
</g>
<path d="M37.1893 28.7524C34.0622 30.3408 33.0794 31.9362 32.6671 35.0132M32.0916 40.1056C32.0551 39.4778 32.0637 38.8808 32.1126 38.3134" stroke="white" stroke-width="2.1747" stroke-linecap="round" stroke-linejoin="round"/>
</svg>
