<svg width="81" height="81" viewBox="0 0 81 81" fill="none" xmlns="http://www.w3.org/2000/svg">
<circle cx="40.8623" cy="40.2148" r="37.6947" fill="#21201E" stroke="#FEF3DE" stroke-width="4.34939"/>
<mask id="mask0_254_824" style="mask-type:alpha" maskUnits="userSpaceOnUse" x="28" y="26" width="25" height="29">
<path d="M52.1913 36.6186C52.8916 44.354 45.9993 54.1018 40.3684 54.1018C34.7376 54.1018 27.8454 44.354 28.5458 36.6186C29.1646 29.7835 34.0355 26.4418 40.3684 26.4418C46.7014 26.4417 51.5725 29.7835 52.1913 36.6186Z" fill="#B3B3B3"/>
</mask>
<g mask="url(#mask0_254_824)">
<path d="M50.232 33.6544C51.0017 42.1688 43.4266 52.8984 37.2379 52.8984C31.0493 52.8984 23.4744 42.1688 24.2441 33.6544C24.9243 26.131 30.2777 22.4527 37.2379 22.4526C44.1983 22.4526 49.5518 26.131 50.232 33.6544Z" fill="#B3B3B3"/>
<rect x="24.9148" y="23.9023" width="32.6204" height="32.6204" fill="#FFD600" style="mix-blend-mode:multiply"/>
</g>
<path d="M36.4644 28.9769C33.3373 30.5654 32.3545 32.1607 31.9422 35.2377M31.3667 40.3302C31.3302 39.7023 31.3388 39.1053 31.3876 38.5379" stroke="white" stroke-width="2.1747" stroke-linecap="round" stroke-linejoin="round"/>
</svg>
