<svg width="81" height="81" viewBox="0 0 81 81" fill="none" xmlns="http://www.w3.org/2000/svg">
<circle cx="40.8623" cy="40.5891" r="37.6947" fill="#21201E" stroke="#FEF3DE" stroke-width="4.34939"/>
<mask id="mask0_250_202" style="mask-type:alpha" maskUnits="userSpaceOnUse" x="28" y="26" width="25" height="29">
<path d="M52.1913 36.9929C52.8916 44.7283 45.9993 54.4761 40.3684 54.4761C34.7376 54.4761 27.8454 44.7283 28.5458 36.9929C29.1646 30.1578 34.0355 26.8161 40.3684 26.8161C46.7014 26.816 51.5725 30.1578 52.1913 36.9929Z" fill="#B3B3B3"/>
</mask>
<g mask="url(#mask0_250_202)">
<path d="M50.232 34.0287C51.0017 42.5431 43.4266 53.2727 37.2379 53.2727C31.0493 53.2727 23.4744 42.5431 24.2441 34.0287C24.9243 26.5052 30.2777 22.827 37.2379 22.8269C44.1983 22.8269 49.5518 26.5052 50.232 34.0287Z" fill="#B3B3B3"/>
<rect x="24.9148" y="24.2767" width="32.6204" height="32.6204" fill="#00B56B" style="mix-blend-mode:multiply"/>
</g>
<path d="M36.4644 29.3512C33.3373 30.9396 32.3545 32.535 31.9422 35.612M31.3667 40.7044C31.3302 40.0766 31.3388 39.4796 31.3876 38.9122" stroke="white" stroke-width="2.1747" stroke-linecap="round" stroke-linejoin="round"/>
</svg>
