<svg width="81" height="80" viewBox="0 0 81 80" fill="none" xmlns="http://www.w3.org/2000/svg">
<circle cx="40.8624" cy="39.8694" r="37.6947" fill="#21201E" stroke="#FEF3DE" stroke-width="4.34939"/>
<path d="M52.9163 35.9129C53.6166 43.6483 46.7243 53.3961 41.0934 53.3961C35.4625 53.3961 28.5704 43.6483 29.2707 35.9129C29.8896 29.0779 34.7605 25.7361 41.0934 25.7361C47.4264 25.736 52.2974 29.0779 52.9163 35.9129Z" fill="#6F6F6F"/>
<mask id="mask0_254_836" style="mask-type:alpha" maskUnits="userSpaceOnUse" x="29" y="25" width="24" height="29">
<path d="M52.9162 35.9129C53.6166 43.6483 46.7242 53.3961 41.0933 53.3961C35.4625 53.3961 28.5703 43.6483 29.2707 35.9129C29.8895 29.0779 34.7604 25.7361 41.0933 25.7361C47.4263 25.736 52.2974 29.0779 52.9162 35.9129Z" fill="#B3B3B3"/>
</mask>
<g mask="url(#mask0_254_836)">
<path d="M50.9569 32.9487C51.7266 41.4632 44.1515 52.1927 37.9629 52.1927C31.7742 52.1927 24.1993 41.4632 24.9691 32.9487C25.6492 25.4253 31.0026 21.747 37.9629 21.7469C44.9232 21.7469 50.2768 25.4253 50.9569 32.9487Z" fill="#B3B3B3"/>
<rect x="25.6397" y="23.1968" width="32.6204" height="32.6204" fill="#F900F7" style="mix-blend-mode:multiply"/>
</g>
<path d="M37.1893 28.2712C34.0622 29.8597 33.0794 31.455 32.6671 34.532M32.0916 39.6245C32.0551 38.9966 32.0637 38.3996 32.1126 37.8322" stroke="white" stroke-width="2.1747" stroke-linecap="round" stroke-linejoin="round"/>
</svg>
