<svg width="81" height="81" viewBox="0 0 81 81" fill="none" xmlns="http://www.w3.org/2000/svg">
<circle cx="40.8624" cy="40.2031" r="37.6947" fill="#21201E" stroke="#FEF3DE" stroke-width="4.34939"/>
<path d="M52.9163 36.2466C53.6166 43.9821 46.7243 53.7299 41.0934 53.7299C35.4625 53.7299 28.5704 43.9821 29.2707 36.2466C29.8896 29.4116 34.7605 26.0699 41.0934 26.0698C47.4264 26.0698 52.2974 29.4116 52.9163 36.2466Z" fill="#6F6F6F"/>
<mask id="mask0_250_239" style="mask-type:alpha" maskUnits="userSpaceOnUse" x="29" y="26" width="24" height="28">
<path d="M52.9162 36.2466C53.6166 43.9821 46.7242 53.7299 41.0933 53.7299C35.4625 53.7299 28.5703 43.9821 29.2707 36.2466C29.8895 29.4116 34.7604 26.0699 41.0933 26.0698C47.4263 26.0698 52.2974 29.4116 52.9162 36.2466Z" fill="#B3B3B3"/>
</mask>
<g mask="url(#mask0_250_239)">
<path d="M50.9569 33.2823C51.7266 41.7968 44.1515 52.5263 37.9629 52.5263C31.7742 52.5263 24.1993 41.7968 24.9691 33.2823C25.6492 25.7589 31.0026 22.0807 37.9629 22.0806C44.9232 22.0806 50.2768 25.7589 50.9569 33.2823Z" fill="#B3B3B3"/>
<rect x="25.6397" y="23.5304" width="32.6204" height="32.6204" fill="#F900F7" style="mix-blend-mode:multiply"/>
</g>
<path d="M37.1893 28.605C34.0622 30.1934 33.0794 31.7888 32.6671 34.8658M32.0916 39.9582C32.0551 39.3304 32.0637 38.7334 32.1126 38.166" stroke="white" stroke-width="2.1747" stroke-linecap="round" stroke-linejoin="round"/>
</svg>
