<svg width="81" height="80" viewBox="0 0 81 80" fill="none" xmlns="http://www.w3.org/2000/svg">
<circle cx="40.8623" cy="39.8821" r="37.6947" fill="#21201E" stroke="#FEF3DE" stroke-width="4.34939"/>
<mask id="mask0_250_299" style="mask-type:alpha" maskUnits="userSpaceOnUse" x="29" y="25" width="24" height="29">
<path d="M52.9161 35.9256C53.6165 43.661 46.7241 53.4088 41.0933 53.4088C35.4624 53.4088 28.5703 43.661 29.2706 35.9256C29.8894 29.0905 34.7604 25.7488 41.0933 25.7488C47.4263 25.7487 52.2973 29.0905 52.9161 35.9256Z" fill="#B3B3B3"/>
</mask>
<g mask="url(#mask0_250_299)">
<path d="M50.9569 32.9615C51.7266 41.476 44.1515 52.2055 37.9628 52.2055C31.7742 52.2055 24.1993 41.476 24.969 32.9615C25.6491 25.4381 31.0026 21.7598 37.9628 21.7598C44.9231 21.7597 50.2767 25.4381 50.9569 32.9615Z" fill="#B3B3B3"/>
<rect x="25.6396" y="23.2095" width="32.6204" height="32.6204" fill="#B3B503" style="mix-blend-mode:multiply"/>
</g>
<path d="M37.1893 28.2842C34.0622 29.8726 33.0794 31.468 32.667 34.545M32.0915 39.6374C32.055 39.0096 32.0636 38.4126 32.1125 37.8452" stroke="white" stroke-width="2.1747" stroke-linecap="round" stroke-linejoin="round"/>
</svg>
