<svg width="81" height="80" viewBox="0 0 81 80" fill="none" xmlns="http://www.w3.org/2000/svg">
<circle cx="40.8624" cy="39.8694" r="37.6947" fill="#21201E" stroke="#FEF3DE" stroke-width="4.34939"/>
<path d="M52.9163 35.913C53.6166 43.6484 46.7243 53.3962 41.0934 53.3962C35.4625 53.3962 28.5704 43.6484 29.2707 35.913C29.8896 29.0779 34.7605 25.7362 41.0934 25.7361C47.4264 25.7361 52.2974 29.0779 52.9163 35.913Z" fill="#6F6F6F"/>
<mask id="mask0_250_262" style="mask-type:alpha" maskUnits="userSpaceOnUse" x="29" y="25" width="24" height="29">
<path d="M52.9162 35.913C53.6166 43.6484 46.7242 53.3963 41.0933 53.3963C35.4625 53.3963 28.5703 43.6484 29.2707 35.913C29.8895 29.078 34.7604 25.7363 41.0933 25.7362C47.4263 25.7362 52.2974 29.078 52.9162 35.913Z" fill="#B3B3B3"/>
</mask>
<g mask="url(#mask0_250_262)">
<path d="M50.9569 32.9488C51.7266 41.4633 44.1515 52.1928 37.9629 52.1928C31.7742 52.1928 24.1993 41.4633 24.9691 32.9488C25.6492 25.4254 31.0026 21.7471 37.9629 21.7471C44.9232 21.747 50.2768 25.4254 50.9569 32.9488Z" fill="#B3B3B3"/>
<rect x="25.6397" y="23.1968" width="32.6204" height="32.6204" fill="#F900F7" style="mix-blend-mode:multiply"/>
</g>
<path d="M37.1893 28.2714C34.0622 29.8598 33.0794 31.4551 32.6671 34.5321M32.0916 39.6246C32.0551 38.9968 32.0637 38.3998 32.1126 37.8323" stroke="white" stroke-width="2.1747" stroke-linecap="round" stroke-linejoin="round"/>
</svg>
