<svg width="425" height="458" viewBox="0 0 425 458" fill="none" xmlns="http://www.w3.org/2000/svg">
<path d="M388.555 121.447C397.88 170.384 375.065 214.889 311.183 179.377" stroke="#FEF3DE" stroke-width="44.198" stroke-linecap="round"/>
<path d="M400.824 119.552C404.071 118.887 407.022 117.566 408.497 115.206C411.943 109.696 411.817 100.414 410.628 95.4277C409.142 89.1941 406.393 79.0416 396.28 75.6616C394.31 75.0029 392.536 74.8671 390.955 75.1008C386.8 73.1962 379.495 71.7995 374.468 76.0727C370.324 74.765 361.561 76.7062 359.846 88.2368C358.542 88.4095 357.546 88.6709 357.039 89.0483C354.777 90.7316 353.58 92.897 353.264 93.7694C352.506 95.5053 351.486 99.5478 353.474 101.831C355.96 104.685 360.286 114.18 365.494 116.455C368.591 117.808 370.502 118.673 372.998 119.091C372.17 126.35 379.412 127.633 381.183 127.883C382.454 127.971 386.298 128.16 391.506 128.212C396.714 128.265 400.167 121.678 400.824 119.552Z" fill="white"/>
<path d="M389.034 119.612C393.567 120.563 405.052 120.717 408.497 115.206C411.943 109.696 411.817 100.414 410.628 95.4277C409.142 89.1941 406.393 79.0416 396.28 75.6616C394.31 75.0029 392.536 74.8671 390.955 75.1008M393.795 83.9202C395.574 85.5992 396.88 87.2369 397.816 88.7959M397.816 88.7959C401.12 94.2995 399.809 98.8215 398.384 100.714C397.424 101.67 395.112 103.707 393.544 104.212C391.977 104.717 390.384 103.738 389.783 103.186L381.038 91.0871C380.946 90.5699 380.809 88.8489 380.999 86.103C381.19 83.3395 384.424 76.0663 390.955 75.1008M397.816 88.7959C398.558 88.4639 400.052 87.6473 400.094 87.0371M383.708 113.496C382.707 111.49 381.709 107.086 384.701 103.985M385.97 102.923C385.484 103.254 385.063 103.61 384.701 103.985M384.701 103.985C382.2 103.429 376.98 102.15 376.107 101.476M358.564 100.266C359.256 101.336 361.481 103.533 364.837 103.764C368.193 103.996 372.153 103.247 373.714 102.844C376.743 101.52 381.641 96.7999 377.001 88.5095C371.29 87.9878 359.301 87.365 357.039 89.0483C354.777 90.7316 353.58 92.897 353.264 93.7694C352.506 95.5053 351.486 99.5478 353.474 101.831C355.96 104.685 360.286 114.18 365.494 116.455C370.702 118.73 372.556 119.624 379.473 119.335M400.824 119.552C400.167 121.678 396.714 128.265 391.506 128.212C386.298 128.16 382.454 127.971 381.183 127.883C379.412 127.633 372.17 126.35 372.998 119.091M390.955 75.1008C386.8 73.1962 379.495 71.7995 374.468 76.0727M369.508 88.0324C370.327 83.1619 372.155 78.0391 374.468 76.0727M374.468 76.0727C370.324 74.765 361.561 76.7062 359.846 88.2368" stroke="#FEF3DE" stroke-width="26.2799" stroke-linecap="round"/>
<path d="M41.9739 145.651C32.6496 194.587 55.4645 239.093 119.346 203.581" stroke="#FEF3DE" stroke-width="44.198" stroke-linecap="round"/>
<path d="M22.7854 143.813C19.857 142.161 14 136.8 14 128.567C14 118.276 17.8198 115.989 18.2017 115.227C18.5837 114.465 20.4936 113.321 21.6395 113.321C21.8018 113.321 22.3473 113.436 23.1674 113.636L15.9099 90.8338C15.4006 89.4362 14.8403 85.9551 16.6738 83.2109C18.9657 79.7806 23.5494 78.256 27.3691 81.3052C31.0357 84.2321 37.3005 90.4526 35.7726 107.604H39.3352C39.8445 99.9812 40.4811 85.1166 40.4811 82.0674C40.4811 79.3723 42.6482 74.8257 48.3778 74.8257C54.1074 74.8257 56.7813 78.256 57.1632 80.924C57.5452 83.592 57.1632 85.4977 52.7123 105.317C53.8196 105.014 55.3521 104.953 57.5452 105.317C63.0457 106.232 64.9301 110.272 65.1847 112.178C65.1847 118.657 65.1083 132.302 64.8027 135.047C64.4208 138.477 58.6911 143.051 55.2534 144.194C54.1074 149.911 47.6138 152.071 45.322 152.198H35.7726C29.9666 152.198 26.7325 147.063 25.8412 144.495C24.7613 144.365 23.7221 144.147 22.7854 143.813Z" fill="white"/>
<path d="M36.1546 143.813C34.0662 144.309 29.6941 144.96 25.8412 144.495M44.1761 120.182C44.1761 115.989 47.9958 110.272 49.1417 108.748C49.9222 107.709 50.3482 105.964 52.7123 105.317M44.1761 120.182C45.0408 121.045 46.1231 124.078 45.7814 126.661M44.1761 120.182C43.1925 119.2 28.1373 114.849 23.1674 113.636M22.0215 125.518C24.3133 129.71 32.3348 132.378 35.7726 132.76C36.2761 132.815 36.7878 132.83 37.3005 132.807M39.9743 139.239C39.9743 137.873 39.4396 134.674 37.3005 132.807M37.3005 132.807C40.2883 132.67 43.3099 131.225 44.94 128.948C45.4086 128.294 45.6703 127.501 45.7814 126.661M44.1761 144.194C46.7226 144.575 52.5031 145.109 55.2534 144.194M55.2534 144.194C58.6911 143.051 64.4208 138.477 64.8027 135.047C65.1083 132.302 65.1847 118.657 65.1847 112.178C64.9301 110.272 63.0457 106.232 57.5452 105.317C55.3521 104.953 53.8196 105.014 52.7123 105.317M55.2534 144.194C54.1074 149.911 47.6138 152.071 45.322 152.198C44.558 152.198 41.5786 152.198 35.7726 152.198C29.9666 152.198 26.7325 147.063 25.8412 144.495M45.7814 126.661C46.2649 128.44 48.607 131.769 54.1074 130.854C59.6079 129.939 61.4923 120.309 61.7469 115.608M23.1674 113.636C22.3473 113.436 21.8018 113.321 21.6395 113.321C20.4936 113.321 18.5837 114.465 18.2017 115.227C17.8198 115.989 14 118.276 14 128.567C14 136.8 19.857 142.161 22.7854 143.813C23.7221 144.147 24.7613 144.365 25.8412 144.495M23.1674 113.636L15.9099 90.8338C15.4006 89.4362 14.8403 85.9551 16.6738 83.2109C18.9657 79.7806 23.5494 78.256 27.3691 81.3052C31.0357 84.2321 37.3005 90.4526 35.7726 107.604M35.7726 107.604H39.3352M35.7726 107.604C34.4994 107.731 31.2012 108.061 30.59 108.366M39.3352 107.604C39.8445 99.9812 40.4811 85.1166 40.4811 82.0674C40.4811 79.3723 42.6482 74.8257 48.3778 74.8257C54.1074 74.8257 56.7813 78.256 57.1632 80.924C57.5452 83.592 57.1632 85.4977 52.7123 105.317M39.3352 107.604C40.2264 107.604 42.801 107.757 43.4121 108.366" stroke="#FEF3DE" stroke-width="26.2799" stroke-linecap="round"/>
<path d="M204.11 384.512L204.071 384.469C201.044 381.182 197.173 376.976 192.697 371.558C187.646 365.443 184.187 358.384 184.275 350.356C184.361 342.587 187.784 336.695 190.249 333.092C191.351 331.481 192.529 329.958 193.415 328.814C193.442 328.778 193.469 328.744 193.496 328.709L193.496 328.709L193.76 328.367C193.76 328.367 193.76 328.367 193.76 328.367C194.805 327.015 195.483 326.113 196.019 325.291L196.019 325.291C196.429 324.663 196.619 324.284 196.7 324.098C196.865 315.679 203.742 308.906 212.199 308.908C220.759 308.909 227.697 315.85 227.696 324.41C227.695 332.196 224.608 338.203 221.978 342.234M204.11 384.512L221.978 342.234M204.11 384.512L204.11 384.512M204.11 384.512L204.11 384.512M221.978 342.234C220.686 344.213 219.307 346.004 218.288 347.322L221.978 342.234ZM204.11 384.512L204.69 385.142C208.049 388.794 209.558 390.53 210.425 391.838C210.477 391.917 210.522 391.986 210.559 392.047C210.481 392.589 210.228 393.809 209.415 396.061C204.912 408.53 199.501 418.088 197.798 420.7C193.121 427.87 195.143 437.473 202.313 442.149C209.483 446.825 219.086 444.804 223.762 437.634C226.778 433.01 233.258 421.301 238.571 406.59C240.389 401.556 241.82 396.091 241.564 390.329C241.285 384.053 239.094 378.983 236.264 374.713C233.81 371.01 230.525 367.44 227.642 364.306L227.504 364.155L226.925 363.526L223.453 366.722L226.925 363.526C223.911 360.251 220.52 356.566 216.596 351.815C216.237 351.381 215.962 351.014 215.753 350.713C215.779 350.675 215.806 350.635 215.833 350.595C216.378 349.798 217.028 348.952 218.027 347.661C218.027 347.661 218.027 347.661 218.027 347.661L218.288 347.322L204.11 384.512Z" fill="white" stroke="#FEF3DE" stroke-width="26.2799" stroke-linecap="round"/>
<path d="M210.907 289.881H215.056L226.274 316.068H199.689L210.907 289.881Z" fill="#A68D06"/>
<path d="M192.668 314.312C193.856 311.97 196.716 311.033 199.06 312.216L199.061 312.216L199.097 312.234C199.135 312.253 199.202 312.285 199.294 312.329C199.48 312.416 199.77 312.549 200.15 312.712C200.914 313.039 202.032 313.484 203.397 313.929C206.167 314.834 209.76 315.679 213.396 315.673C216.934 315.667 220.074 314.838 222.358 313.985C223.49 313.562 224.383 313.143 224.973 312.842C225.268 312.692 225.485 312.573 225.616 312.498C225.681 312.461 225.725 312.435 225.746 312.422L225.753 312.418L225.759 312.415C227.988 311.038 230.913 311.722 232.3 313.947C233.413 315.732 233.2 317.969 231.928 319.504C231.37 320.188 229.648 321.151 228.856 321.547C228.035 321.95 226.966 322.429 225.691 322.905C222.675 324.032 218.387 325.187 213.411 325.196C208.406 325.204 203.754 324.064 200.44 322.982C198.763 322.434 197.378 321.884 196.4 321.465C195.923 321.261 194.637 320.593 194.138 320.236C192.258 318.89 191.59 316.437 192.668 314.312Z" fill="#FFD800" stroke="#FEF3DE" stroke-width="26.2799" stroke-linecap="round" stroke-linejoin="round"/>
<path d="M339.517 123.066C346.965 205.335 273.662 309.007 213.776 309.007C153.89 309.007 80.5886 205.335 88.0371 123.066C94.6186 50.3721 146.423 14.8316 213.776 14.8311C281.13 14.8305 332.936 50.3721 339.517 123.066Z" fill="#FFD800" stroke="#FEF3DE" stroke-width="28.2788"/>
<path d="M271.512 56.5738C300.477 75.6192 308.298 92.4824 308.764 123.45M308.299 162.463C309.393 156.271 310.007 150.338 310.188 144.656" stroke="#FEF3DE" stroke-width="26.2799" stroke-linecap="round" stroke-linejoin="round"/>
<path d="M176.263 86.6404L165.992 70.9383C167.291 63.2643 179.333 51.8188 189.604 56.0626C205.377 62.5795 203.724 83.4081 200.584 96.6756C198.377 106.002 185.567 123.735 172.722 120.524C159.877 117.313 158.24 104.546 159.027 98.5645L176.263 86.6404Z" fill="#21201E" stroke="#FEF3DE" stroke-width="26.2799"/>
<path d="M234.864 94.8767L224.593 79.1746C225.892 71.5007 237.934 60.0552 248.205 64.299C263.978 70.8159 262.324 91.6445 259.185 104.912C258.416 108.161 256.361 112.429 253.465 116.478C245.566 118.908 239.593 123.986 235.547 129.099C234.149 129.213 232.736 129.114 231.322 128.76C218.477 125.549 216.84 112.783 217.627 106.801L234.864 94.8767Z" fill="#21201E"/>
<path d="M230.449 137.525C231.5 135.045 233.199 132.066 235.547 129.099M235.547 129.099C234.149 129.213 232.736 129.114 231.322 128.76C218.477 125.549 216.84 112.783 217.627 106.801L234.864 94.8767L224.593 79.1746C225.892 71.5007 237.934 60.0552 248.205 64.299C263.978 70.8159 262.324 91.6445 259.185 104.912C258.416 108.161 256.361 112.429 253.465 116.478M235.547 129.099C239.593 123.986 245.566 118.908 253.465 116.478M253.465 116.478C259.533 114.611 266.34 115.565 270.472 117.454C274.359 119.149 283.639 123.542 289.156 134.076" stroke="#FEF3DE" stroke-width="26.2799" stroke-linecap="round"/>
<path d="M240.723 186.756C256.968 172.494 264.059 145.237 263.272 136.501C215.34 174.95 172.856 156.032 156.427 137.707C163.889 156.931 154.42 179.264 148.753 188.027C163.523 201.947 187.43 204.931 199.165 204.465C206.249 204.504 224.478 201.018 240.723 186.756Z" fill="#E28075"/>
<path d="M240.723 186.756L232.054 176.881L232.054 176.881L240.723 186.756ZM199.165 204.465L199.238 191.325L198.941 191.324L198.645 191.335L199.165 204.465ZM148.753 188.027L139.741 197.59L139.741 197.59L148.753 188.027ZM152.998 172.542C149.321 166.286 141.268 164.195 135.012 167.872C128.755 171.549 126.664 179.601 130.341 185.858L152.998 172.542ZM157.671 115.068C155.18 108.252 147.635 104.747 140.819 107.238C134.003 109.729 130.497 117.274 132.988 124.09L157.671 115.068ZM156.427 137.707L166.211 128.935L166.211 128.935L156.427 137.707ZM245.036 127.016C239.167 131.284 237.87 139.502 242.138 145.371C246.407 151.24 254.625 152.538 260.494 148.269L245.036 127.016ZM259.921 150.233C263.549 156.518 271.585 158.672 277.87 155.043C284.155 151.415 286.309 143.379 282.68 137.094L259.921 150.233ZM250.185 137.68C250.183 137.655 250.196 137.787 250.19 138.105C250.184 138.413 250.162 138.83 250.113 139.362C250.013 140.433 249.814 141.805 249.485 143.436C248.826 146.705 247.713 150.676 246.111 154.863C242.822 163.466 237.973 171.685 232.054 176.881L249.392 196.631C259.717 187.566 266.537 175.025 270.658 164.25C274.633 153.856 277.018 142.636 276.359 135.322L250.185 137.68ZM232.054 176.881C218.456 188.819 203.428 191.349 199.238 191.325L199.092 217.605C209.07 217.66 230.499 213.216 249.392 196.631L232.054 176.881ZM198.645 191.335C194.006 191.519 186.394 191.012 178.419 188.928C170.388 186.829 162.999 183.398 157.766 178.465L139.741 197.59C149.277 206.577 161.226 211.597 171.775 214.354C182.38 217.125 192.589 217.876 199.686 217.595L198.645 191.335ZM157.766 178.465C155.879 176.687 154.279 174.722 152.998 172.542L130.341 185.858C132.989 190.363 136.2 194.253 139.741 197.59L157.766 178.465ZM132.988 124.09C135.618 131.285 140.129 139.212 146.643 146.478L166.211 128.935C161.947 124.178 159.163 119.149 157.671 115.068L132.988 124.09ZM146.643 146.478C156.861 157.875 174.459 168.83 196.488 171.443C218.966 174.109 245.034 167.976 271.494 146.751L255.051 126.251C233.578 143.475 214.437 147.108 199.584 145.346C184.281 143.531 172.422 135.864 166.211 128.935L146.643 146.478ZM159.787 195.163C163.386 189.598 167.793 180.441 170.302 169.807C172.806 159.197 173.698 145.89 168.677 132.952L144.178 142.461C146.618 148.747 146.507 156.219 144.725 163.772C142.948 171.302 139.788 177.693 137.719 180.892L159.787 195.163ZM260.494 148.269C260.125 148.538 259.822 148.68 259.625 148.756C259.424 148.834 259.273 148.865 259.174 148.878C258.976 148.904 258.851 148.875 258.795 148.854L267.75 124.147C259.859 121.287 251.226 122.515 245.036 127.016L260.494 148.269ZM258.795 148.854C258.741 148.835 258.802 148.843 258.963 148.981C259.127 149.122 259.485 149.478 259.921 150.233L282.68 137.094C279.027 130.767 273.806 126.342 267.75 124.147L258.795 148.854Z" fill="#FEF3DE"/>
<path d="M193.183 176.669C194.728 175.017 197.105 173.109 199.794 171.991M199.794 171.991C204.025 170.233 211.231 169.558 212.781 176.669C214.788 185.878 202.391 190.364 197.787 190.364C193.183 190.364 181.849 186.586 180.905 174.78C179.96 162.974 196.489 162 199.794 171.991Z" stroke="#FEF3DE" stroke-width="26.2799" stroke-linecap="round"/>
<path d="M386.713 121.389C395.968 169.959 373.323 214.133 309.919 178.886" stroke="#21201E" stroke-width="17.8193" stroke-linecap="round"/>
<path d="M401.026 121.491C404.388 120.803 407.443 119.435 408.97 116.992C412.538 111.287 412.407 101.677 411.177 96.5142C409.638 90.0604 406.792 79.5491 396.322 76.0497C394.282 75.3678 392.445 75.2272 390.808 75.4691C386.507 73.4973 378.943 72.0512 373.739 76.4754C369.449 75.1215 360.376 77.1312 358.6 89.0692C357.25 89.248 356.218 89.5187 355.693 89.9094C353.352 91.6522 352.112 93.8942 351.786 94.7973C351 96.5945 349.945 100.78 352.003 103.144C354.577 106.098 359.056 115.929 364.448 118.284C367.654 119.685 369.633 120.581 372.217 121.013C371.359 128.529 378.857 129.858 380.691 130.117C382.007 130.207 385.987 130.403 391.379 130.457C396.771 130.512 400.345 123.692 401.026 121.491Z" fill="white"/>
<path d="M388.819 121.553C393.512 122.538 405.403 122.697 408.97 116.992C412.538 111.287 412.407 101.677 411.177 96.5142C409.638 90.0604 406.792 79.5491 396.322 76.0497C394.282 75.3678 392.445 75.2272 390.808 75.4691M393.748 84.6001C395.59 86.3385 396.942 88.0341 397.911 89.6481M397.911 89.6481C401.332 95.3462 399.975 100.028 398.5 101.987C397.506 102.977 395.112 105.086 393.489 105.609C391.866 106.132 390.217 105.119 389.595 104.547L380.541 92.0203C380.446 91.4848 380.304 89.703 380.5 86.8601C380.698 83.9989 384.046 76.4688 390.808 75.4691M397.911 89.6481C398.679 89.3043 400.227 88.4589 400.27 87.8272M383.305 115.221C382.269 113.144 381.235 108.584 384.333 105.374M385.647 104.274C385.144 104.617 384.708 104.985 384.333 105.374M384.333 105.374C381.744 104.799 376.34 103.474 375.436 102.777M357.273 101.523C357.99 102.631 360.292 104.906 363.767 105.145C367.242 105.385 371.342 104.61 372.958 104.192C376.094 102.822 381.165 97.9349 376.362 89.3516C370.448 88.8114 358.035 88.1667 355.693 89.9094C353.352 91.6522 352.112 93.8942 351.786 94.7973C351 96.5945 349.945 100.78 352.003 103.144C354.577 106.098 359.056 115.929 364.448 118.284C369.839 120.64 371.759 121.566 378.921 121.266M401.026 121.491C400.345 123.692 396.771 130.512 391.379 130.457C385.987 130.403 382.007 130.207 380.691 130.117C378.857 129.858 371.359 128.529 372.217 121.013M390.808 75.4691C386.507 73.4973 378.943 72.0512 373.739 76.4754M368.604 88.8576C369.452 83.8151 371.344 78.5112 373.739 76.4754M373.739 76.4754C369.449 75.1215 360.376 77.1312 358.6 89.0692" stroke="#21201E" stroke-width="5.8698" stroke-linecap="round"/>
<path d="M42.718 145.411C33.4632 193.982 56.1078 238.156 119.512 202.909" stroke="#21201E" stroke-width="17.8193" stroke-linecap="round"/>
<path d="M23.6731 143.587C20.7665 141.947 14.9532 136.626 14.9532 128.455C14.9532 118.241 18.7445 115.971 19.1236 115.214C19.5027 114.458 21.3983 113.323 22.5357 113.323C22.6968 113.323 23.2382 113.437 24.0522 113.635L16.8489 91.0033C16.3434 89.6162 15.7873 86.1611 17.6071 83.4373C19.8818 80.0327 24.4313 78.5194 28.2225 81.5458C31.8617 84.4509 38.0797 90.6249 36.5632 107.648H40.0992C40.6047 100.082 41.2366 85.3288 41.2366 82.3024C41.2366 79.6274 43.3875 75.1147 49.0743 75.1147C54.7611 75.1147 57.415 78.5194 57.7941 81.1675C58.1732 83.8156 57.7941 85.7071 53.3765 105.379C54.4755 105.078 55.9965 105.017 58.1732 105.379C63.6326 106.287 65.5029 110.296 65.7557 112.188C65.7557 118.619 65.6799 132.162 65.3766 134.886C64.9975 138.291 59.3106 142.83 55.8985 143.965C54.7611 149.639 48.3161 151.783 46.0413 151.909H36.5632C30.8006 151.909 27.5907 146.812 26.7061 144.264C25.6341 144.134 24.6027 143.918 23.6731 143.587Z" fill="white"/>
<path d="M36.9424 143.587C34.8695 144.079 30.5301 144.725 26.7061 144.264M44.9039 120.132C44.9039 115.971 48.6952 110.296 49.8325 108.783C50.6071 107.753 51.03 106.02 53.3765 105.379M44.9039 120.132C45.7622 120.989 46.8364 123.999 46.4973 126.563M44.9039 120.132C43.9277 119.158 28.9849 114.839 24.0522 113.635M22.9148 125.428C25.1896 129.59 33.1511 132.238 36.5632 132.616C37.063 132.671 37.5709 132.686 38.0797 132.663M40.7336 139.047C40.7336 137.691 40.2028 134.516 38.0797 132.663M38.0797 132.663C41.0452 132.527 44.0442 131.093 45.6622 128.833C46.1273 128.183 46.387 127.397 46.4973 126.563M44.9039 143.965C47.4314 144.343 53.1688 144.873 55.8985 143.965M55.8985 143.965C59.3106 142.83 64.9975 138.291 65.3766 134.886C65.6799 132.162 65.7557 118.619 65.7557 112.188C65.5029 110.296 63.6326 106.287 58.1732 105.379C55.9965 105.017 54.4755 105.078 53.3765 105.379M55.8985 143.965C54.7611 149.639 48.3161 151.783 46.0413 151.909C45.2831 151.909 42.3259 151.909 36.5632 151.909C30.8006 151.909 27.5907 146.812 26.7061 144.264M46.4973 126.563C46.9772 128.329 49.3018 131.632 54.7611 130.725C60.2205 129.817 62.0908 120.258 62.3436 115.593M24.0522 113.635C23.2382 113.437 22.6968 113.323 22.5357 113.323C21.3983 113.323 19.5027 114.458 19.1236 115.214C18.7445 115.971 14.9532 118.241 14.9532 128.455C14.9532 136.626 20.7665 141.947 23.6731 143.587C24.6027 143.918 25.6341 144.134 26.7061 144.264M24.0522 113.635L16.8489 91.0033C16.3434 89.6162 15.7873 86.1611 17.6071 83.4373C19.8818 80.0327 24.4313 78.5194 28.2225 81.5458C31.8617 84.4509 38.0797 90.6249 36.5632 107.648M36.5632 107.648H40.0992M36.5632 107.648C35.2995 107.774 32.026 108.102 31.4194 108.405M40.0992 107.648C40.6047 100.082 41.2366 85.3288 41.2366 82.3024C41.2366 79.6274 43.3875 75.1147 49.0743 75.1147C54.7611 75.1147 57.415 78.5194 57.7941 81.1675C58.1732 83.8156 57.7941 85.7071 53.3765 105.379M40.0992 107.648C40.9838 107.648 43.5391 107.8 44.1457 108.405" stroke="#21201E" stroke-width="5.62713" stroke-linecap="round"/>
<path d="M205.5 423.703L208.303 425.531L205.5 423.703C203.784 426.334 204.526 429.859 207.157 431.575C209.788 433.291 213.313 432.549 215.029 429.918C217.611 425.958 223.709 415.009 228.728 401.109C230.355 396.605 231.305 392.57 231.132 388.693C230.951 384.628 229.566 381.273 227.476 378.119C225.51 375.152 222.758 372.142 219.728 368.848L219.155 368.226C216.157 364.969 212.637 361.145 208.562 356.211C205.542 352.556 205.012 350.231 205.028 348.82C205.044 347.317 205.68 345.686 207.278 343.351C208.007 342.285 208.832 341.217 209.788 339.981L210.045 339.648C210.045 339.648 210.045 339.648 210.045 339.648C211.063 338.331 212.213 336.83 213.259 335.227C215.369 331.995 217.357 327.905 217.358 322.834C217.359 319.692 214.813 317.145 211.671 317.145C208.53 317.144 205.983 319.691 205.982 322.832C205.982 324.787 205.253 326.68 203.733 329.009C202.964 330.187 202.071 331.362 201.043 332.692C201.043 332.692 201.043 332.692 201.043 332.692L200.778 333.036L203.301 334.988L200.778 333.036L200.751 333.07C199.84 334.247 198.82 335.566 197.889 336.927C195.833 339.932 193.706 343.84 193.653 348.695C193.598 353.644 195.694 358.496 199.791 363.456C204.068 368.634 207.766 372.651 210.767 375.911L210.777 375.922L211.355 376.55C214.548 380.021 216.624 382.337 217.994 384.404C219.24 386.284 219.699 387.671 219.767 389.199C219.844 390.912 219.447 393.317 218.029 397.245C213.306 410.322 207.601 420.482 205.5 423.703Z" fill="white" stroke="#21201E" stroke-width="6.69234" stroke-linecap="round"/>
<path d="M210.39 288.564H214.508L225.642 314.556H199.256L210.39 288.564Z" fill="#A68D06" stroke="#21201E" stroke-width="6.56499"/>
<path d="M192.287 312.813C193.466 310.488 196.305 309.558 198.631 310.732L198.632 310.733L198.668 310.751C198.706 310.769 198.772 310.801 198.863 310.844C199.048 310.931 199.335 311.063 199.713 311.225C200.471 311.549 201.58 311.991 202.935 312.433C205.685 313.331 209.251 314.169 212.859 314.164C216.371 314.158 219.488 313.335 221.754 312.488C222.878 312.068 223.764 311.653 224.351 311.354C224.643 311.205 224.858 311.086 224.988 311.012C225.053 310.975 225.097 310.95 225.118 310.937L225.125 310.933L225.13 310.93C227.343 309.564 230.246 310.242 231.623 312.451C232.727 314.223 232.516 316.442 231.253 317.966C230.699 318.645 228.99 319.601 228.205 319.994C227.389 320.393 226.329 320.869 225.063 321.342C222.069 322.461 217.813 323.607 212.875 323.615C207.907 323.623 203.29 322.492 200 321.418C198.336 320.874 196.962 320.328 195.991 319.912C195.518 319.71 194.24 319.047 193.746 318.692C191.879 317.357 191.216 314.922 192.287 312.813Z" fill="#FFD800" stroke="#21201E" stroke-width="6.56499" stroke-linecap="round" stroke-linejoin="round"/>
<path d="M329.218 125.721C336.089 201.604 268.476 297.228 213.238 297.228C158 297.228 90.3896 201.604 97.2599 125.721C103.33 58.6702 151.113 25.8885 213.238 25.8881C275.363 25.8876 323.148 58.6702 329.218 125.721Z" fill="#FFD800" stroke="#21201E" stroke-width="13.5989"/>
<mask id="mask0_433_110" style="mask-type:alpha" maskUnits="userSpaceOnUse" x="100" y="31" width="225" height="262">
<path fill-rule="evenodd" clip-rule="evenodd" d="M212.381 31.8624C183.015 31.8627 156.563 39.661 136.645 55.8919C116.644 72.1898 103.724 96.5945 100.83 128.762C97.5381 165.346 112.043 206.112 133.543 237.592C144.331 253.386 157.029 267.072 170.441 276.857C183.805 286.609 198.238 292.739 212.381 292.739C226.524 292.739 240.957 286.609 254.322 276.857C267.733 267.072 280.432 253.386 291.22 237.592C312.72 206.112 327.226 165.346 323.934 128.762C321.04 96.5944 308.12 72.1896 288.119 55.8915C268.2 39.6605 241.747 31.8622 212.381 31.8624Z" fill="#FFD800"/>
</mask>
<g mask="url(#mask0_433_110)">
<path d="M160.707 270.169C161.847 269.03 161.847 267.183 160.707 266.043C159.568 264.904 157.721 264.904 156.582 266.043C155.443 267.183 155.443 269.03 156.582 270.169C157.721 271.308 159.568 271.308 160.707 270.169Z" fill="#21201E"/>
<path d="M169.07 278.531C170.476 277.125 170.476 274.845 169.07 273.439C167.663 272.032 165.383 272.032 163.977 273.439C162.571 274.845 162.571 277.125 163.977 278.531C165.383 279.937 167.663 279.937 169.07 278.531Z" fill="#21201E"/>
<path d="M177.443 286.904C179.122 285.225 179.122 282.502 177.443 280.823C175.763 279.144 173.041 279.144 171.362 280.823C169.682 282.502 169.682 285.225 171.362 286.904C173.041 288.583 175.763 288.583 177.443 286.904Z" fill="#21201E"/>
<path d="M185.816 295.277C187.768 293.325 187.768 290.16 185.816 288.208C183.863 286.256 180.698 286.256 178.746 288.208C176.794 290.16 176.794 293.325 178.746 295.277C180.698 297.229 183.863 297.229 185.816 295.277Z" fill="#21201E"/>
<path d="M168.49 262.193C169.575 261.108 169.575 259.347 168.49 258.261C167.404 257.175 165.643 257.175 164.557 258.261C163.471 259.347 163.471 261.108 164.557 262.193C165.643 263.279 167.404 263.279 168.49 262.193Z" fill="#21201E"/>
<path d="M176.82 270.523C178.155 269.188 178.155 267.024 176.82 265.689C175.484 264.354 173.32 264.354 171.985 265.689C170.65 267.024 170.65 269.188 171.985 270.523C173.32 271.858 175.484 271.858 176.82 270.523Z" fill="#21201E"/>
<path d="M185.15 278.853C186.734 277.269 186.734 274.701 185.15 273.116C183.565 271.532 180.997 271.532 179.412 273.116C177.828 274.701 177.828 277.269 179.412 278.853C180.997 280.438 183.565 280.438 185.15 278.853Z" fill="#21201E"/>
<path d="M193.469 287.173C195.296 285.345 195.296 282.382 193.469 280.555C191.641 278.727 188.678 278.727 186.851 280.555C185.023 282.382 185.023 285.345 186.851 287.173C188.678 289 191.641 289 193.469 287.173Z" fill="#21201E"/>
<path d="M201.799 295.503C203.876 293.426 203.876 290.059 201.799 287.982C199.722 285.905 196.355 285.905 194.278 287.982C192.201 290.059 192.201 293.426 194.278 295.503C196.355 297.579 199.722 297.579 201.799 295.503Z" fill="#21201E"/>
<path d="M176.282 254.229C177.321 253.19 177.321 251.507 176.282 250.468C175.244 249.43 173.56 249.43 172.522 250.468C171.484 251.507 171.484 253.19 172.522 254.229C173.56 255.267 175.244 255.267 176.282 254.229Z" fill="#21201E"/>
<path d="M184.569 262.516C185.833 261.252 185.833 259.203 184.569 257.939C183.306 256.675 181.256 256.675 179.993 257.939C178.729 259.203 178.729 261.252 179.993 262.516C181.256 263.78 183.306 263.78 184.569 262.516Z" fill="#21201E"/>
<path d="M192.846 270.792C194.329 269.309 194.329 266.904 192.846 265.42C191.362 263.937 188.957 263.937 187.474 265.42C185.99 266.904 185.99 269.309 187.474 270.792C188.957 272.275 191.362 272.275 192.846 270.792Z" fill="#21201E"/>
<path d="M201.133 279.079C202.842 277.37 202.842 274.6 201.133 272.891C199.424 271.182 196.653 271.182 194.944 272.891C193.235 274.6 193.235 277.37 194.944 279.079C196.653 280.788 199.424 280.788 201.133 279.079Z" fill="#21201E"/>
<path d="M209.409 287.355C211.337 285.427 211.337 282.3 209.409 280.372C207.481 278.443 204.354 278.443 202.425 280.372C200.497 282.3 200.497 285.427 202.425 287.355C204.354 289.284 207.481 289.284 209.409 287.355Z" fill="#21201E"/>
<path d="M217.696 295.642C219.85 293.488 219.85 289.996 217.696 287.842C215.542 285.688 212.05 285.688 209.896 287.842C207.742 289.996 207.742 293.488 209.896 295.642C212.05 297.796 215.542 297.796 217.696 295.642Z" fill="#21201E"/>
<path d="M192.308 254.497C193.495 253.311 193.495 251.387 192.308 250.2C191.122 249.013 189.198 249.013 188.011 250.2C186.824 251.387 186.824 253.311 188.011 254.497C189.198 255.684 191.122 255.684 192.308 254.497Z" fill="#21201E"/>
<path d="M200.542 262.731C201.924 261.348 201.924 259.107 200.542 257.724C199.159 256.341 196.918 256.341 195.535 257.724C194.153 259.107 194.153 261.348 195.535 262.731C196.918 264.113 199.159 264.113 200.542 262.731Z" fill="#21201E"/>
<path d="M208.786 270.975C210.37 269.39 210.37 266.822 208.786 265.237C207.202 263.653 204.633 263.653 203.049 265.237C201.464 266.822 201.464 269.39 203.049 270.975C204.633 272.559 207.202 272.559 208.786 270.975Z" fill="#21201E"/>
<path d="M217.019 279.208C218.799 277.428 218.799 274.542 217.019 272.762C215.239 270.982 212.353 270.982 210.573 272.762C208.793 274.542 208.793 277.428 210.573 279.208C212.353 280.988 215.239 280.988 217.019 279.208Z" fill="#21201E"/>
<path d="M225.252 287.441C227.228 285.465 227.228 282.262 225.252 280.286C223.277 278.31 220.073 278.31 218.097 280.286C216.121 282.262 216.121 285.465 218.097 287.441C220.073 289.417 223.277 289.417 225.252 287.441Z" fill="#21201E"/>
<path d="M233.496 295.685C235.674 293.508 235.674 289.977 233.496 287.799C231.319 285.622 227.788 285.622 225.611 287.799C223.433 289.977 223.433 293.508 225.611 295.685C227.788 297.863 231.319 297.863 233.496 295.685Z" fill="#21201E"/>
<path d="M208.249 254.68C209.536 253.392 209.536 251.305 208.249 250.017C206.961 248.73 204.873 248.73 203.586 250.017C202.298 251.305 202.298 253.392 203.586 254.68C204.873 255.968 206.961 255.968 208.249 254.68Z" fill="#21201E"/>
<path d="M216.439 262.87C217.899 261.411 217.899 259.044 216.439 257.584C214.979 256.125 212.613 256.125 211.153 257.584C209.693 259.044 209.693 261.411 211.153 262.87C212.613 264.33 214.979 264.33 216.439 262.87Z" fill="#21201E"/>
<path d="M224.629 271.061C226.261 269.429 226.261 266.783 224.629 265.152C222.998 263.52 220.352 263.52 218.72 265.152C217.088 266.783 217.088 269.429 218.72 271.061C220.352 272.692 222.998 272.692 224.629 271.061Z" fill="#21201E"/>
<path d="M232.82 279.251C234.623 277.447 234.623 274.523 232.82 272.719C231.016 270.915 228.091 270.915 226.287 272.719C224.484 274.523 224.484 277.447 226.287 279.251C228.091 281.055 231.016 281.055 232.82 279.251Z" fill="#21201E"/>
<path d="M241.01 287.441C242.986 285.465 242.986 282.262 241.01 280.286C239.034 278.31 235.83 278.31 233.855 280.286C231.879 282.262 231.879 285.465 233.855 287.441C235.83 289.417 239.034 289.417 241.01 287.441Z" fill="#21201E"/>
<path d="M249.2 295.632C251.348 293.484 251.348 290.001 249.2 287.853C247.052 285.705 243.57 285.705 241.422 287.853C239.274 290.001 239.274 293.484 241.422 295.632C243.57 297.78 247.052 297.78 249.2 295.632Z" fill="#21201E"/>
<path d="M215.945 246.619C217.131 245.432 217.131 243.508 215.945 242.321C214.758 241.134 212.834 241.134 211.647 242.321C210.461 243.508 210.461 245.432 211.647 246.619C212.834 247.805 214.758 247.805 215.945 246.619Z" fill="#21201E"/>
<path d="M224.092 254.766C225.427 253.431 225.427 251.266 224.092 249.931C222.757 248.596 220.592 248.596 219.257 249.931C217.922 251.266 217.922 253.431 219.257 254.766C220.592 256.101 222.757 256.101 224.092 254.766Z" fill="#21201E"/>
<path d="M232.239 262.913C233.723 261.43 233.723 259.025 232.239 257.541C230.756 256.058 228.351 256.058 226.868 257.541C225.384 259.025 225.384 261.43 226.868 262.913C228.351 264.397 230.756 264.397 232.239 262.913Z" fill="#21201E"/>
<path d="M240.387 271.061C242.019 269.429 242.019 266.783 240.387 265.152C238.755 263.52 236.109 263.52 234.478 265.152C232.846 266.783 232.846 269.429 234.478 271.061C236.109 272.692 238.755 272.692 240.387 271.061Z" fill="#21201E"/>
<path d="M248.534 279.208C250.314 277.428 250.314 274.542 248.534 272.762C246.754 270.982 243.868 270.982 242.088 272.762C240.308 274.542 240.308 277.428 242.088 279.208C243.868 280.988 246.754 280.988 248.534 279.208Z" fill="#21201E"/>
<path d="M231.745 246.662C232.956 245.451 232.956 243.489 231.745 242.278C230.535 241.068 228.572 241.068 227.362 242.278C226.151 243.489 226.151 245.451 227.362 246.662C228.572 247.872 230.535 247.872 231.745 246.662Z" fill="#21201E"/>
<path d="M239.85 254.766C241.185 253.431 241.185 251.266 239.85 249.931C238.515 248.596 236.35 248.596 235.015 249.931C233.68 251.266 233.68 253.431 235.015 254.766C236.35 256.101 238.515 256.101 239.85 254.766Z" fill="#21201E"/>
<path d="M247.954 262.87C249.414 261.411 249.414 259.044 247.954 257.584C246.494 256.125 244.128 256.125 242.668 257.584C241.208 259.044 241.208 261.411 242.668 262.87C244.128 264.33 246.494 264.33 247.954 262.87Z" fill="#21201E"/>
<path d="M256.058 270.975C257.643 269.39 257.643 266.822 256.058 265.237C254.474 263.653 251.905 263.653 250.321 265.237C248.737 266.822 248.737 269.39 250.321 270.975C251.905 272.559 254.474 272.559 256.058 270.975Z" fill="#21201E"/>
<path d="M264.163 279.079C265.872 277.37 265.872 274.6 264.163 272.891C262.454 271.182 259.683 271.182 257.974 272.891C256.265 274.6 256.265 277.37 257.974 279.079C259.683 280.788 262.454 280.788 264.163 279.079Z" fill="#21201E"/>
<path d="M247.46 246.619C248.646 245.432 248.646 243.508 247.46 242.321C246.273 241.134 244.349 241.134 243.162 242.321C241.976 243.508 241.976 245.432 243.162 246.619C244.349 247.805 246.273 247.805 247.46 246.619Z" fill="#21201E"/>
<path d="M255.521 254.68C256.809 253.392 256.809 251.305 255.521 250.017C254.234 248.73 252.146 248.73 250.858 250.017C249.571 251.305 249.571 253.392 250.858 254.68C252.146 255.968 254.234 255.968 255.521 254.68Z" fill="#21201E"/>
<path d="M263.572 262.731C264.954 261.348 264.954 259.107 263.572 257.724C262.189 256.341 259.948 256.341 258.565 257.724C257.183 259.107 257.183 261.348 258.565 262.731C259.948 264.113 262.189 264.113 263.572 262.731Z" fill="#21201E"/>
<path d="M271.096 254.497C272.283 253.311 272.283 251.387 271.096 250.2C269.909 249.013 267.985 249.013 266.799 250.2C265.612 251.387 265.612 253.311 266.799 254.497C267.985 255.684 269.909 255.684 271.096 254.497Z" fill="#21201E"/>
<path d="M279.114 262.516C280.378 261.252 280.378 259.203 279.114 257.939C277.851 256.675 275.801 256.675 274.538 257.939C273.274 259.203 273.274 261.252 274.538 262.516C275.801 263.78 277.851 263.78 279.114 262.516Z" fill="#21201E"/>
<path d="M190.792 284.291C191.682 283.401 191.682 281.958 190.792 281.068C189.902 280.178 188.459 280.178 187.569 281.068C186.679 281.958 186.679 283.401 187.569 284.291C188.459 285.181 189.902 285.181 190.792 284.291Z" fill="#21201E"/>
<path d="M199.208 292.707C200.395 291.52 200.395 289.596 199.208 288.409C198.021 287.222 196.097 287.222 194.91 288.409C193.724 289.596 193.724 291.52 194.91 292.707C196.097 293.893 198.021 293.893 199.208 292.707Z" fill="#21201E"/>
<path d="M198.714 276.455C199.628 275.541 199.628 274.06 198.714 273.146C197.8 272.232 196.318 272.232 195.405 273.146C194.491 274.06 194.491 275.541 195.405 276.455C196.318 277.369 197.8 277.369 198.714 276.455Z" fill="#21201E"/>
<path d="M207.173 284.914C208.407 283.68 208.407 281.679 207.173 280.444C205.938 279.21 203.937 279.21 202.703 280.444C201.469 281.679 201.469 283.68 202.703 284.914C203.937 286.148 205.938 286.148 207.173 284.914Z" fill="#21201E"/>
<path d="M215.642 293.384C217.203 291.823 217.203 289.293 215.642 287.732C214.082 286.172 211.552 286.172 209.991 287.732C208.431 289.293 208.431 291.823 209.991 293.384C211.552 294.944 214.082 294.944 215.642 293.384Z" fill="#21201E"/>
<path d="M206.635 268.619C207.573 267.682 207.573 266.162 206.635 265.224C205.698 264.287 204.178 264.287 203.24 265.224C202.303 266.162 202.303 267.682 203.24 268.619C204.178 269.557 205.698 269.557 206.635 268.619Z" fill="#21201E"/>
<path d="M215.148 277.132C216.436 275.844 216.436 273.757 215.148 272.469C213.861 271.181 211.773 271.181 210.485 272.469C209.198 273.757 209.198 275.844 210.485 277.132C211.773 278.419 213.861 278.419 215.148 277.132Z" fill="#21201E"/>
<path d="M223.65 285.634C225.282 284.002 225.282 281.356 223.65 279.725C222.018 278.093 219.373 278.093 217.741 279.725C216.109 281.356 216.109 284.002 217.741 285.634C219.373 287.265 222.018 287.265 223.65 285.634Z" fill="#21201E"/>
<path d="M232.152 294.136C234.128 292.16 234.128 288.956 232.152 286.98C230.176 285.004 226.972 285.004 224.997 286.98C223.021 288.956 223.021 292.16 224.997 294.136C226.972 296.112 230.176 296.112 232.152 294.136Z" fill="#21201E"/>
<path d="M214.568 260.794C215.535 259.827 215.535 258.259 214.568 257.292C213.601 256.324 212.033 256.324 211.066 257.292C210.098 258.259 210.098 259.827 211.066 260.794C212.033 261.761 213.601 261.761 214.568 260.794Z" fill="#21201E"/>
<path d="M223.113 269.339C224.448 268.004 224.448 265.839 223.113 264.504C221.778 263.169 219.613 263.169 218.278 264.504C216.943 265.839 216.943 268.004 218.278 269.339C219.613 270.674 221.778 270.674 223.113 269.339Z" fill="#21201E"/>
<path d="M231.668 277.895C233.377 276.186 233.377 273.415 231.668 271.706C229.96 269.997 227.189 269.997 225.48 271.706C223.771 273.415 223.771 276.186 225.48 277.895C227.189 279.604 229.96 279.604 231.668 277.895Z" fill="#21201E"/>
<path d="M240.213 286.439C242.29 284.363 242.29 280.996 240.213 278.919C238.137 276.842 234.769 276.842 232.693 278.919C230.616 280.996 230.616 284.363 232.693 286.439C234.769 288.516 238.137 288.516 240.213 286.439Z" fill="#21201E"/>
<path d="M222.447 252.915C223.414 251.948 223.414 250.38 222.447 249.413C221.48 248.446 219.911 248.446 218.944 249.413C217.977 250.38 217.977 251.948 218.944 252.915C219.911 253.883 221.48 253.883 222.447 252.915Z" fill="#21201E"/>
<path d="M230.992 261.46C232.327 260.125 232.327 257.961 230.992 256.626C229.657 255.291 227.492 255.291 226.157 256.626C224.822 257.961 224.822 260.125 226.157 261.46C227.492 262.795 229.657 262.795 230.992 261.46Z" fill="#21201E"/>
<path d="M239.547 270.016C241.256 268.307 241.256 265.536 239.547 263.827C237.838 262.119 235.068 262.119 233.359 263.827C231.65 265.536 231.65 268.307 233.359 270.016C235.068 271.725 237.838 271.725 239.547 270.016Z" fill="#21201E"/>
<path d="M248.092 278.561C250.169 276.484 250.169 273.117 248.092 271.04C246.015 268.963 242.648 268.963 240.571 271.04C238.495 273.117 238.495 276.484 240.571 278.561C242.648 280.638 246.015 280.638 248.092 278.561Z" fill="#21201E"/>
<path d="M230.272 244.983C231.209 244.045 231.209 242.525 230.272 241.588C229.334 240.65 227.814 240.65 226.877 241.588C225.939 242.525 225.939 244.045 226.877 244.983C227.814 245.92 229.334 245.92 230.272 244.983Z" fill="#21201E"/>
<path d="M238.784 253.496C240.072 252.208 240.072 250.12 238.784 248.833C237.497 247.545 235.409 247.545 234.122 248.833C232.834 250.12 232.834 252.208 234.122 253.496C235.409 254.783 237.497 254.783 238.784 253.496Z" fill="#21201E"/>
<path d="M247.286 261.997C248.918 260.366 248.918 257.72 247.286 256.088C245.655 254.457 243.009 254.457 241.377 256.088C239.745 257.72 239.745 260.366 241.377 261.997C243.009 263.629 245.655 263.629 247.286 261.997Z" fill="#21201E"/>
<path d="M255.788 270.499C257.764 268.523 257.764 265.32 255.788 263.344C253.812 261.368 250.609 261.368 248.633 263.344C246.657 265.32 246.657 268.523 248.633 270.499C250.609 272.475 253.812 272.475 255.788 270.499Z" fill="#21201E"/>
<path d="M238.108 237.061C239.021 236.147 239.021 234.666 238.108 233.752C237.194 232.838 235.712 232.838 234.798 233.752C233.885 234.666 233.885 236.147 234.798 237.061C235.712 237.975 237.194 237.975 238.108 237.061Z" fill="#21201E"/>
<path d="M246.566 245.52C247.801 244.286 247.801 242.285 246.566 241.051C245.332 239.817 243.331 239.817 242.097 241.051C240.863 242.285 240.863 244.286 242.097 245.52C243.331 246.754 245.332 246.754 246.566 245.52Z" fill="#21201E"/>
<path d="M255.036 253.99C256.597 252.429 256.597 249.899 255.036 248.339C253.476 246.778 250.945 246.778 249.385 248.339C247.824 249.899 247.824 252.429 249.385 253.99C250.945 255.55 253.476 255.55 255.036 253.99Z" fill="#21201E"/>
<path d="M263.495 262.449C265.376 260.568 265.376 257.518 263.495 255.637C261.614 253.756 258.564 253.756 256.684 255.637C254.803 257.518 254.803 260.568 256.684 262.449C258.564 264.33 261.614 264.33 263.495 262.449Z" fill="#21201E"/>
<path d="M271.954 270.908C274.155 268.706 274.155 265.137 271.954 262.936C269.753 260.734 266.183 260.734 263.982 262.936C261.781 265.137 261.781 268.706 263.982 270.908C266.183 273.109 269.753 273.109 271.954 270.908Z" fill="#21201E"/>
<path d="M245.943 229.139C246.833 228.249 246.833 226.806 245.943 225.916C245.053 225.026 243.61 225.026 242.72 225.916C241.83 226.806 241.83 228.249 242.72 229.139C243.61 230.029 245.053 230.029 245.943 229.139Z" fill="#21201E"/>
<path d="M254.359 237.555C255.546 236.369 255.546 234.445 254.359 233.258C253.173 232.071 251.249 232.071 250.062 233.258C248.875 234.445 248.875 236.369 250.062 237.555C251.249 238.742 253.173 238.742 254.359 237.555Z" fill="#21201E"/>
<path d="M262.775 245.971C264.259 244.488 264.259 242.083 262.775 240.599C261.292 239.116 258.887 239.116 257.403 240.599C255.92 242.083 255.92 244.488 257.403 245.971C258.887 247.455 261.292 247.455 262.775 245.971Z" fill="#21201E"/>
<path d="M271.191 254.387C272.971 252.607 272.971 249.721 271.191 247.941C269.411 246.161 266.525 246.161 264.745 247.941C262.965 249.721 262.965 252.607 264.745 254.387C266.525 256.167 269.411 256.167 271.191 254.387Z" fill="#21201E"/>
<path d="M262.152 229.591C263.291 228.451 263.291 226.604 262.152 225.465C261.013 224.326 259.166 224.326 258.026 225.465C256.887 226.604 256.887 228.451 258.026 229.591C259.166 230.73 261.013 230.73 262.152 229.591Z" fill="#21201E"/>
<path d="M270.514 237.953C271.921 236.547 271.921 234.267 270.514 232.86C269.108 231.454 266.828 231.454 265.422 232.86C264.016 234.267 264.016 236.547 265.422 237.953C266.828 239.359 269.108 239.359 270.514 237.953Z" fill="#21201E"/>
<path d="M278.887 246.326C280.566 244.647 280.566 241.924 278.887 240.245C277.208 238.566 274.486 238.566 272.806 240.245C271.127 241.924 271.127 244.647 272.806 246.326C274.486 248.005 277.208 248.005 278.887 246.326Z" fill="#21201E"/>
<path d="M269.934 221.615C271.02 220.529 271.02 218.769 269.934 217.683C268.848 216.597 267.088 216.597 266.002 217.683C264.916 218.769 264.916 220.529 266.002 221.615C267.088 222.701 268.848 222.701 269.934 221.615Z" fill="#21201E"/>
<path d="M278.264 229.945C279.599 228.61 279.599 226.446 278.264 225.111C276.929 223.775 274.765 223.775 273.429 225.111C272.094 226.446 272.094 228.61 273.429 229.945C274.765 231.28 276.929 231.28 278.264 229.945Z" fill="#21201E"/>
<path d="M286.594 238.275C288.178 236.691 288.178 234.122 286.594 232.538C285.01 230.954 282.441 230.954 280.857 232.538C279.273 234.122 279.273 236.691 280.857 238.275C282.441 239.859 285.01 239.86 286.594 238.275Z" fill="#21201E"/>
<path d="M277.727 213.651C278.765 212.612 278.765 210.929 277.727 209.89C276.689 208.852 275.005 208.852 273.967 209.89C272.928 210.929 272.928 212.612 273.967 213.651C275.005 214.689 276.689 214.689 277.727 213.651Z" fill="#21201E"/>
<path d="M286.014 221.938C287.278 220.674 287.278 218.625 286.014 217.361C284.75 216.097 282.701 216.097 281.437 217.361C280.173 218.625 280.173 220.674 281.437 221.938C282.701 223.201 284.75 223.201 286.014 221.938Z" fill="#21201E"/>
<path d="M294.29 230.214C295.774 228.73 295.774 226.325 294.29 224.842C292.807 223.359 290.402 223.359 288.918 224.842C287.435 226.325 287.435 228.73 288.918 230.214C290.402 231.697 292.807 231.697 294.29 230.214Z" fill="#21201E"/>
<path d="M293.753 213.919C294.94 212.732 294.94 210.808 293.753 209.622C292.566 208.435 290.642 208.435 289.456 209.622C288.269 210.808 288.269 212.732 289.456 213.919C290.642 215.106 292.566 215.106 293.753 213.919Z" fill="#21201E"/>
<path d="M301.986 222.152C303.369 220.77 303.369 218.528 301.986 217.146C300.604 215.763 298.362 215.763 296.98 217.146C295.597 218.528 295.597 220.77 296.98 222.152C298.362 223.535 300.604 223.535 301.986 222.152Z" fill="#21201E"/>
<path d="M254.486 268.945C255.673 267.758 255.673 265.834 254.486 264.647C253.299 263.461 251.375 263.461 250.188 264.647C249.002 265.834 249.002 267.758 250.188 268.945C251.375 270.132 253.299 270.132 254.486 268.945Z" fill="#21201E"/>
<path d="M262.633 277.092C263.968 275.757 263.968 273.593 262.633 272.257C261.298 270.922 259.134 270.922 257.799 272.257C256.463 273.593 256.463 275.757 257.799 277.092C259.134 278.427 261.298 278.427 262.633 277.092Z" fill="#21201E"/>
<path d="M262.547 261.249C263.835 259.961 263.835 257.873 262.547 256.586C261.26 255.298 259.172 255.298 257.884 256.586C256.597 257.873 256.597 259.961 257.884 261.249C259.172 262.536 261.26 262.536 262.547 261.249Z" fill="#21201E"/>
<path d="M270.738 269.439C272.197 267.979 272.197 265.613 270.738 264.153C269.278 262.693 266.911 262.693 265.452 264.153C263.992 265.613 263.992 267.979 265.452 269.439C266.911 270.899 269.278 270.899 270.738 269.439Z" fill="#21201E"/>
<path d="M262.365 245.309C263.551 244.122 263.551 242.198 262.365 241.011C261.178 239.824 259.254 239.824 258.067 241.011C256.88 242.198 256.88 244.122 258.067 245.309C259.254 246.495 261.178 246.495 262.365 245.309Z" fill="#21201E"/>
<path d="M270.598 253.542C271.98 252.159 271.98 249.918 270.598 248.535C269.215 247.153 266.974 247.153 265.591 248.535C264.209 249.918 264.209 252.159 265.591 253.542C266.974 254.924 269.215 254.924 270.598 253.542Z" fill="#21201E"/>
<path d="M262.096 229.282C263.134 228.244 263.134 226.56 262.096 225.522C261.058 224.484 259.374 224.484 258.336 225.522C257.297 226.56 257.297 228.244 258.336 229.282C259.374 230.321 261.058 230.321 262.096 229.282Z" fill="#21201E"/>
<path d="M270.383 237.569C271.647 236.306 271.647 234.256 270.383 232.993C269.119 231.729 267.07 231.729 265.806 232.993C264.542 234.256 264.542 236.306 265.806 237.569C267.07 238.833 269.119 238.833 270.383 237.569Z" fill="#21201E"/>
<path d="M278.659 245.846C280.143 244.362 280.143 241.957 278.659 240.474C277.176 238.99 274.771 238.99 273.287 240.474C271.804 241.957 271.804 244.362 273.287 245.846C274.771 247.329 277.176 247.329 278.659 245.846Z" fill="#21201E"/>
<path d="M286.946 254.133C288.655 252.424 288.655 249.653 286.946 247.944C285.237 246.235 282.467 246.235 280.758 247.944C279.049 249.653 279.049 252.424 280.758 254.133C282.467 255.842 285.237 255.842 286.946 254.133Z" fill="#21201E"/>
<path d="M270.061 221.49C271.147 220.404 271.147 218.643 270.061 217.557C268.975 216.472 267.214 216.472 266.129 217.557C265.043 218.643 265.043 220.404 266.129 221.49C267.214 222.575 268.975 222.575 270.061 221.49Z" fill="#21201E"/>
<path d="M278.391 229.82C279.726 228.485 279.726 226.32 278.391 224.985C277.056 223.65 274.891 223.65 273.556 224.985C272.221 226.32 272.221 228.485 273.556 229.82C274.891 231.155 277.056 231.155 278.391 229.82Z" fill="#21201E"/>
<path d="M286.721 238.15C288.305 236.565 288.305 233.997 286.721 232.412C285.136 230.828 282.568 230.828 280.984 232.412C279.399 233.997 279.399 236.565 280.984 238.15C282.568 239.734 285.136 239.734 286.721 238.15Z" fill="#21201E"/>
<path d="M278.036 213.708C279.175 212.568 279.175 210.721 278.036 209.582C276.897 208.443 275.05 208.443 273.911 209.582C272.771 210.721 272.771 212.568 273.911 213.708C275.05 214.847 276.897 214.847 278.036 213.708Z" fill="#21201E"/>
<path d="M286.398 222.07C287.805 220.663 287.805 218.383 286.398 216.977C284.992 215.571 282.712 215.571 281.306 216.977C279.9 218.383 279.9 220.663 281.306 222.07C282.712 223.476 284.992 223.476 286.398 222.07Z" fill="#21201E"/>
<path d="M294.771 230.443C296.451 228.764 296.451 226.041 294.771 224.362C293.092 222.683 290.37 222.683 288.69 224.362C287.011 226.041 287.011 228.764 288.69 230.443C290.37 232.122 293.092 232.122 294.771 230.443Z" fill="#21201E"/>
<path d="M277.585 197.499C278.475 196.609 278.475 195.166 277.585 194.276C276.695 193.386 275.252 193.386 274.362 194.276C273.472 195.166 273.472 196.609 274.362 197.499C275.252 198.389 276.695 198.389 277.585 197.499Z" fill="#21201E"/>
<path d="M286.001 205.915C287.188 204.728 287.188 202.804 286.001 201.617C284.814 200.43 282.89 200.43 281.703 201.617C280.517 202.804 280.517 204.728 281.703 205.915C282.89 207.101 284.814 207.101 286.001 205.915Z" fill="#21201E"/>
<path d="M294.417 214.331C295.9 212.847 295.9 210.442 294.417 208.959C292.933 207.475 290.528 207.475 289.045 208.959C287.562 210.442 287.562 212.847 289.045 214.331C290.528 215.814 292.933 215.814 294.417 214.331Z" fill="#21201E"/>
<path d="M302.833 222.747C304.613 220.967 304.613 218.08 302.833 216.3C301.053 214.52 298.167 214.52 296.387 216.3C294.606 218.08 294.606 220.967 296.387 222.747C298.167 224.527 301.053 224.527 302.833 222.747Z" fill="#21201E"/>
<path d="M285.507 189.663C286.42 188.749 286.42 187.268 285.507 186.354C284.593 185.44 283.111 185.44 282.198 186.354C281.284 187.268 281.284 188.749 282.198 189.663C283.111 190.577 284.593 190.577 285.507 189.663Z" fill="#21201E"/>
<path d="M293.966 198.122C295.2 196.888 295.2 194.887 293.966 193.653C292.731 192.418 290.73 192.418 289.496 193.653C288.262 194.887 288.262 196.888 289.496 198.122C290.73 199.356 292.731 199.356 293.966 198.122Z" fill="#21201E"/>
<path d="M302.435 206.592C303.996 205.031 303.996 202.501 302.435 200.94C300.875 199.38 298.345 199.38 296.784 200.94C295.224 202.501 295.224 205.031 296.784 206.592C298.345 208.152 300.875 208.152 302.435 206.592Z" fill="#21201E"/>
<path d="M310.894 215.05C312.775 213.17 312.775 210.12 310.894 208.239C309.013 206.358 305.964 206.358 304.083 208.239C302.202 210.12 302.202 213.17 304.083 215.05C305.964 216.931 309.013 216.931 310.894 215.05Z" fill="#21201E"/>
<path d="M293.428 181.827C294.366 180.89 294.366 179.37 293.428 178.432C292.491 177.495 290.971 177.495 290.033 178.432C289.096 179.37 289.096 180.89 290.033 181.827C290.971 182.765 292.491 182.765 293.428 181.827Z" fill="#21201E"/>
<path d="M301.941 190.34C303.229 189.052 303.229 186.965 301.941 185.677C300.653 184.389 298.566 184.389 297.278 185.677C295.991 186.965 295.991 189.052 297.278 190.34C298.566 191.627 300.653 191.627 301.941 190.34Z" fill="#21201E"/>
<path d="M310.443 198.842C312.075 197.21 312.075 194.564 310.443 192.933C308.811 191.301 306.166 191.301 304.534 192.933C302.902 194.564 302.902 197.21 304.534 198.842C306.166 200.473 308.811 200.473 310.443 198.842Z" fill="#21201E"/>
<path d="M301.361 174.002C302.328 173.035 302.328 171.467 301.361 170.5C300.394 169.533 298.826 169.533 297.858 170.5C296.891 171.467 296.891 173.035 297.858 174.002C298.826 174.969 300.394 174.969 301.361 174.002Z" fill="#21201E"/>
<path d="M309.906 182.547C311.241 181.212 311.241 179.047 309.906 177.712C308.571 176.377 306.406 176.377 305.071 177.712C303.736 179.047 303.736 181.212 305.071 182.547C306.406 183.882 308.571 183.882 309.906 182.547Z" fill="#21201E"/>
<path d="M318.461 191.103C320.17 189.394 320.17 186.623 318.461 184.914C316.753 183.205 313.982 183.205 312.273 184.914C310.564 186.623 310.564 189.394 312.273 191.103C313.982 192.812 316.753 192.812 318.461 191.103Z" fill="#21201E"/>
<path d="M309.24 166.123C310.207 165.156 310.207 163.588 309.24 162.621C308.273 161.654 306.704 161.654 305.737 162.621C304.77 163.588 304.77 165.156 305.737 166.123C306.704 167.091 308.272 167.091 309.24 166.123Z" fill="#21201E"/>
<path d="M317.785 174.668C319.12 173.333 319.12 171.169 317.785 169.834C316.449 168.499 314.285 168.499 312.95 169.834C311.615 171.169 311.615 173.333 312.95 174.668C314.285 176.003 316.449 176.003 317.785 174.668Z" fill="#21201E"/>
<path d="M317.065 158.191C318.002 157.253 318.002 155.733 317.065 154.796C316.127 153.858 314.607 153.858 313.67 154.796C312.732 155.733 312.732 157.253 313.67 158.191C314.607 159.128 316.127 159.128 317.065 158.191Z" fill="#21201E"/>
<path d="M325.577 166.704C326.865 165.416 326.865 163.328 325.577 162.041C324.29 160.753 322.202 160.753 320.915 162.041C319.627 163.328 319.627 165.416 320.915 166.704C322.202 167.991 324.29 167.991 325.577 166.704Z" fill="#21201E"/>
<path d="M324.9 150.269C325.814 149.355 325.814 147.874 324.901 146.96C323.987 146.046 322.505 146.046 321.591 146.96C320.678 147.874 320.678 149.355 321.591 150.269C322.505 151.183 323.987 151.183 324.9 150.269Z" fill="#21201E"/>
</g>
<path d="M154.104 56.9994C125.355 75.9026 117.592 92.6399 117.13 123.376M117.592 162.098C116.506 155.952 115.897 150.063 115.716 144.424" stroke="#FFEE8E" stroke-width="13.5989" stroke-linecap="round" stroke-linejoin="round"/>
<path d="M176.004 86.8417L165.81 71.2569C167.098 63.6402 179.051 52.2802 189.245 56.4923C204.9 62.9606 203.259 83.6336 200.143 96.802C197.952 106.059 185.238 123.659 172.489 120.472C159.74 117.285 158.115 104.614 158.896 98.6768L176.004 86.8417Z" fill="#21201E" stroke="#21201E" stroke-width="8.92979"/>
<path d="M234.167 95.0166L223.972 79.4318C225.261 71.8152 237.214 60.4551 247.408 64.6672C263.063 71.1355 261.422 91.8085 258.306 104.977C257.543 108.201 255.503 112.438 252.629 116.456C244.789 118.868 238.861 123.908 234.845 128.983C233.457 129.097 232.055 128.998 230.652 128.647C217.903 125.46 216.278 112.789 217.059 106.852L234.167 95.0166Z" fill="#21201E"/>
<path d="M229.785 137.346C230.828 134.885 232.514 131.928 234.845 128.983M234.845 128.983C233.457 129.097 232.055 128.998 230.652 128.647C217.903 125.46 216.278 112.789 217.059 106.852L234.167 95.0166L223.972 79.4318C225.261 71.8152 237.214 60.4551 247.408 64.6672C263.063 71.1355 261.422 91.8085 258.306 104.977C257.543 108.201 255.503 112.438 252.629 116.456M234.845 128.983C238.861 123.908 244.789 118.869 252.629 116.456M252.629 116.456C258.651 114.603 265.408 115.551 269.509 117.426C273.367 119.108 282.577 123.468 288.054 133.923" stroke="#21201E" stroke-width="8.92979" stroke-linecap="round"/>
<path d="M239.983 186.209C256.106 172.054 263.145 145.001 262.364 136.33C214.789 174.491 172.623 155.715 156.317 137.526C163.722 156.607 154.325 178.773 148.7 187.471C163.359 201.287 187.088 204.248 198.736 203.786C205.766 203.825 223.859 200.365 239.983 186.209Z" fill="#E28075"/>
<path d="M262.364 136.33L263.885 132.132L263.885 132.132L262.364 136.33ZM239.983 186.209L242.928 189.565L242.928 189.565L239.983 186.209ZM198.736 203.786L198.76 199.321L198.659 199.321L198.559 199.325L198.736 203.786ZM148.7 187.471L145.638 190.721L145.638 190.721L148.7 187.471ZM145.519 176.448C144.269 174.322 141.533 173.611 139.407 174.861C137.281 176.11 136.571 178.846 137.82 180.972L145.519 176.448ZM149.495 118.002C148.649 115.686 146.085 114.494 143.769 115.341C141.453 116.187 140.262 118.751 141.108 121.067L149.495 118.002ZM249.309 133.852C247.315 135.302 246.874 138.095 248.324 140.089C249.774 142.083 252.567 142.524 254.561 141.074L249.309 133.852ZM266.465 145.671C267.698 147.807 270.429 148.539 272.564 147.306C274.7 146.073 275.432 143.342 274.199 141.207L266.465 145.671ZM257.917 136.73C258.217 140.065 256.928 148.241 253.342 157.618C249.806 166.866 244.35 176.434 237.037 182.854L242.928 189.565C251.739 181.83 257.864 170.794 261.683 160.808C265.452 150.952 267.291 141.266 266.811 135.929L257.917 136.73ZM237.037 182.854C221.813 196.22 204.808 199.355 198.76 199.321L198.711 208.251C206.725 208.296 225.905 204.51 242.928 189.565L237.037 182.854ZM198.559 199.325C193.152 199.539 184.75 198.956 175.976 196.663C167.183 194.365 158.361 190.441 151.762 184.222L145.638 190.721C153.698 198.317 164.07 202.782 173.718 205.303C183.385 207.829 192.671 208.495 198.912 208.248L198.559 199.325ZM151.762 184.222C149.35 181.948 147.236 179.37 145.519 176.448L137.82 180.972C140.002 184.685 142.663 187.917 145.638 190.721L151.762 184.222ZM141.108 121.067C143.347 127.192 147.261 134.114 152.992 140.507L159.641 134.546C154.674 129.005 151.347 123.069 149.495 118.002L141.108 121.067ZM152.992 140.507C161.826 150.36 177.419 160.16 197.089 162.493C216.911 164.844 240.523 159.573 265.158 139.812L259.57 132.847C236.63 151.248 215.372 155.669 198.14 153.626C180.757 151.564 167.114 142.881 159.641 134.546L152.992 140.507ZM152.449 189.896C155.522 185.145 159.489 176.959 161.74 167.418C163.99 157.884 164.621 146.581 160.479 135.911L152.154 139.142C155.419 147.552 155.053 156.872 153.049 165.367C151.047 173.854 147.503 181.1 144.951 185.047L152.449 189.896ZM254.561 141.074C255.788 140.181 258.224 139.578 260.842 140.527L263.885 132.132C258.608 130.219 253.044 131.136 249.309 133.852L254.561 141.074ZM260.842 140.527C262.663 141.187 264.729 142.664 266.465 145.671L274.199 141.207C271.499 136.53 267.843 133.566 263.885 132.132L260.842 140.527Z" fill="#21201E"/>
<path d="M192.798 176.198C194.331 174.559 196.69 172.664 199.36 171.555M199.36 171.555C203.559 169.81 210.711 169.14 212.25 176.198C214.241 185.338 201.938 189.791 197.368 189.791C192.798 189.791 181.549 186.041 180.611 174.323C179.674 162.605 196.079 161.639 199.36 171.555Z" stroke="#21201E" stroke-width="5.30206" stroke-linecap="round"/>
</svg>
