<svg width="49" height="63" viewBox="0 0 49 63" fill="none" xmlns="http://www.w3.org/2000/svg">
<path d="M35.0945 18.9459H40.2973C40.7655 20.7573 42.4131 22.0985 44.3554 22.0985C46.6793 22.0985 48.5697 20.2 48.5697 17.8659C48.5697 15.8977 47.2343 14.2604 45.4307 13.7901V8.59947C47.2343 8.12918 48.5697 6.47446 48.5697 4.52363C48.5697 2.1896 46.6793 0.291023 44.3554 0.291023C42.0315 0.291023 40.1412 2.1896 40.1412 4.52363C40.1412 6.49188 41.4766 8.12918 43.2802 8.59947V13.7901C41.8234 14.1733 40.6788 15.3229 40.2973 16.786H35.0945C34.6263 14.9745 32.9787 13.6333 31.0364 13.6333C28.7125 13.6333 26.8222 15.5319 26.8222 17.8659C26.8222 19.8342 28.1575 21.4715 29.9611 21.9418V27.1324C28.1575 27.6027 26.8222 29.2574 26.8222 31.2082C26.8222 33.1765 28.1575 34.8138 29.9611 35.2841V40.4747C28.5044 40.8579 27.3598 42.0075 26.9782 43.4706H21.8102C21.4286 42.0075 20.284 40.8579 18.8273 40.4747V35.2841C20.6309 34.8138 21.9662 33.1591 21.9662 31.2082C21.9662 28.8742 20.0759 26.9756 17.752 26.9756C15.7923 26.9756 14.1621 28.3168 13.6939 30.1283H8.49112C8.02288 28.3168 6.37534 26.9756 4.43298 26.9756C2.10908 26.9756 0.21875 28.8742 0.21875 31.2082C0.21875 33.5423 2.10908 35.4408 4.43298 35.4408C6.39268 35.4408 8.02288 34.0996 8.49112 32.2881H13.6939C14.0754 33.7513 15.22 34.9009 16.6768 35.2841V40.4747C14.8732 40.945 13.5378 42.5997 13.5378 44.5505C13.5378 46.5188 14.8732 48.1561 16.6768 48.6264V53.817C14.8732 54.2873 13.5378 55.942 13.5378 57.8928C13.5378 60.2268 15.4281 62.1254 17.752 62.1254C20.0759 62.1254 21.9662 60.2268 21.9662 57.8928C21.9662 55.9246 20.6309 54.2873 18.8273 53.817V48.6264C20.284 48.2432 21.4286 47.0936 21.8102 45.6304H26.9782C27.4465 47.4419 29.094 48.7831 31.0364 48.7831C33.3603 48.7831 35.2506 46.8845 35.2506 44.5505C35.2506 42.5823 33.9152 40.945 32.1116 40.4747V35.2841C33.5684 34.9009 34.713 33.7513 35.0945 32.2881H40.2973C40.7655 34.0996 42.4131 35.4408 44.3554 35.4408C46.6793 35.4408 48.5697 33.5423 48.5697 31.2082C48.5697 28.8742 46.6793 26.9756 44.3554 26.9756C42.3957 26.9756 40.7655 28.3168 40.2973 30.1283H35.0945C34.713 28.6652 33.5684 27.5156 32.1116 27.1324V21.9418C33.5684 21.5586 34.713 20.409 35.0945 18.9459Z" fill="#FE592D"/>
</svg>
